<?xml version="1.0" encoding="utf-8" standalone="no"?>
<!DOCTYPE svg PUBLIC "-//W3C//DTD SVG 1.1//EN"
  "http://www.w3.org/Graphics/SVG/1.1/DTD/svg11.dtd">
<svg xmlns:xlink="http://www.w3.org/1999/xlink" width="1001.657333pt" height="679.746767pt" viewBox="0 0 1001.657333 679.746767" xmlns="http://www.w3.org/2000/svg" version="1.1">
 <metadata>
  <rdf:RDF xmlns:dc="http://purl.org/dc/elements/1.1/" xmlns:cc="http://creativecommons.org/ns#" xmlns:rdf="http://www.w3.org/1999/02/22-rdf-syntax-ns#">
   <cc:Work>
    <dc:type rdf:resource="http://purl.org/dc/dcmitype/StillImage"/>
    <dc:date>2026-03-12T12:25:49.073533</dc:date>
    <dc:format>image/svg+xml</dc:format>
    <dc:creator>
     <cc:Agent>
      <dc:title>Matplotlib v3.10.8, https://matplotlib.org/</dc:title>
     </cc:Agent>
    </dc:creator>
   </cc:Work>
  </rdf:RDF>
 </metadata>
 <defs>
  <style type="text/css">*{stroke-linejoin: round; stroke-linecap: butt}</style>
 </defs>
 <g id="figure_1">
  <g id="patch_1">
   <path d="M 0 679.746767 
L 1001.657333 679.746767 
L 1001.657333 0 
L 0 0 
z
" style="fill: #ffffff"/>
  </g>
  <g id="axes_1">
   <g id="patch_2">
    <path d="M 284.91583 426.461269 
L 753.322752 426.461269 
L 753.322752 22.318125 
L 284.91583 22.318125 
z
" style="fill: #ffffff"/>
   </g>
   <g id="matplotlib.axis_1">
    <g id="xtick_1">
     <g id="line2d_1">
      <path d="M 310.233195 426.461269 
L 310.233195 22.318125 
" clip-path="url(#pd9a67671d6)" style="fill: none; stroke: #b0b0b0; stroke-opacity: 0.25; stroke-width: 0.4; stroke-linecap: square"/>
     </g>
     <g id="line2d_2">
      <defs>
       <path id="mfe233e019a" d="M 0 0 
L 0 3.5 
" style="stroke: #000000; stroke-width: 0.8"/>
      </defs>
      <g>
       <use xlink:href="#mfe233e019a" x="310.233195" y="426.461269" style="stroke: #000000; stroke-width: 0.8"/>
      </g>
     </g>
     <g id="text_1">
      <!-- 0 -->
      <g transform="translate(307.051945 441.059707) scale(0.1 -0.1)">
       <defs>
        <path id="DejaVuSans-30" d="M 2034 4250 
Q 1547 4250 1301 3770 
Q 1056 3291 1056 2328 
Q 1056 1369 1301 889 
Q 1547 409 2034 409 
Q 2525 409 2770 889 
Q 3016 1369 3016 2328 
Q 3016 3291 2770 3770 
Q 2525 4250 2034 4250 
z
M 2034 4750 
Q 2819 4750 3233 4129 
Q 3647 3509 3647 2328 
Q 3647 1150 3233 529 
Q 2819 -91 2034 -91 
Q 1250 -91 836 529 
Q 422 1150 422 2328 
Q 422 3509 836 4129 
Q 1250 4750 2034 4750 
z
" transform="scale(0.015625)"/>
       </defs>
       <use xlink:href="#DejaVuSans-30"/>
      </g>
     </g>
    </g>
    <g id="xtick_2">
     <g id="line2d_3">
      <path d="M 403.246577 426.461269 
L 403.246577 22.318125 
" clip-path="url(#pd9a67671d6)" style="fill: none; stroke: #b0b0b0; stroke-opacity: 0.25; stroke-width: 0.4; stroke-linecap: square"/>
     </g>
     <g id="line2d_4">
      <g>
       <use xlink:href="#mfe233e019a" x="403.246577" y="426.461269" style="stroke: #000000; stroke-width: 0.8"/>
      </g>
     </g>
     <g id="text_2">
      <!-- 10 -->
      <g transform="translate(396.884077 441.059707) scale(0.1 -0.1)">
       <defs>
        <path id="DejaVuSans-31" d="M 794 531 
L 1825 531 
L 1825 4091 
L 703 3866 
L 703 4441 
L 1819 4666 
L 2450 4666 
L 2450 531 
L 3481 531 
L 3481 0 
L 794 0 
L 794 531 
z
" transform="scale(0.015625)"/>
       </defs>
       <use xlink:href="#DejaVuSans-31"/>
       <use xlink:href="#DejaVuSans-30" transform="translate(63.623047 0)"/>
      </g>
     </g>
    </g>
    <g id="xtick_3">
     <g id="line2d_5">
      <path d="M 496.259959 426.461269 
L 496.259959 22.318125 
" clip-path="url(#pd9a67671d6)" style="fill: none; stroke: #b0b0b0; stroke-opacity: 0.25; stroke-width: 0.4; stroke-linecap: square"/>
     </g>
     <g id="line2d_6">
      <g>
       <use xlink:href="#mfe233e019a" x="496.259959" y="426.461269" style="stroke: #000000; stroke-width: 0.8"/>
      </g>
     </g>
     <g id="text_3">
      <!-- 20 -->
      <g transform="translate(489.897459 441.059707) scale(0.1 -0.1)">
       <defs>
        <path id="DejaVuSans-32" d="M 1228 531 
L 3431 531 
L 3431 0 
L 469 0 
L 469 531 
Q 828 903 1448 1529 
Q 2069 2156 2228 2338 
Q 2531 2678 2651 2914 
Q 2772 3150 2772 3378 
Q 2772 3750 2511 3984 
Q 2250 4219 1831 4219 
Q 1534 4219 1204 4116 
Q 875 4013 500 3803 
L 500 4441 
Q 881 4594 1212 4672 
Q 1544 4750 1819 4750 
Q 2544 4750 2975 4387 
Q 3406 4025 3406 3419 
Q 3406 3131 3298 2873 
Q 3191 2616 2906 2266 
Q 2828 2175 2409 1742 
Q 1991 1309 1228 531 
z
" transform="scale(0.015625)"/>
       </defs>
       <use xlink:href="#DejaVuSans-32"/>
       <use xlink:href="#DejaVuSans-30" transform="translate(63.623047 0)"/>
      </g>
     </g>
    </g>
    <g id="xtick_4">
     <g id="line2d_7">
      <path d="M 589.273341 426.461269 
L 589.273341 22.318125 
" clip-path="url(#pd9a67671d6)" style="fill: none; stroke: #b0b0b0; stroke-opacity: 0.25; stroke-width: 0.4; stroke-linecap: square"/>
     </g>
     <g id="line2d_8">
      <g>
       <use xlink:href="#mfe233e019a" x="589.273341" y="426.461269" style="stroke: #000000; stroke-width: 0.8"/>
      </g>
     </g>
     <g id="text_4">
      <!-- 30 -->
      <g transform="translate(582.910841 441.059707) scale(0.1 -0.1)">
       <defs>
        <path id="DejaVuSans-33" d="M 2597 2516 
Q 3050 2419 3304 2112 
Q 3559 1806 3559 1356 
Q 3559 666 3084 287 
Q 2609 -91 1734 -91 
Q 1441 -91 1130 -33 
Q 819 25 488 141 
L 488 750 
Q 750 597 1062 519 
Q 1375 441 1716 441 
Q 2309 441 2620 675 
Q 2931 909 2931 1356 
Q 2931 1769 2642 2001 
Q 2353 2234 1838 2234 
L 1294 2234 
L 1294 2753 
L 1863 2753 
Q 2328 2753 2575 2939 
Q 2822 3125 2822 3475 
Q 2822 3834 2567 4026 
Q 2313 4219 1838 4219 
Q 1578 4219 1281 4162 
Q 984 4106 628 3988 
L 628 4550 
Q 988 4650 1302 4700 
Q 1616 4750 1894 4750 
Q 2613 4750 3031 4423 
Q 3450 4097 3450 3541 
Q 3450 3153 3228 2886 
Q 3006 2619 2597 2516 
z
" transform="scale(0.015625)"/>
       </defs>
       <use xlink:href="#DejaVuSans-33"/>
       <use xlink:href="#DejaVuSans-30" transform="translate(63.623047 0)"/>
      </g>
     </g>
    </g>
    <g id="xtick_5">
     <g id="line2d_9">
      <path d="M 682.286723 426.461269 
L 682.286723 22.318125 
" clip-path="url(#pd9a67671d6)" style="fill: none; stroke: #b0b0b0; stroke-opacity: 0.25; stroke-width: 0.4; stroke-linecap: square"/>
     </g>
     <g id="line2d_10">
      <g>
       <use xlink:href="#mfe233e019a" x="682.286723" y="426.461269" style="stroke: #000000; stroke-width: 0.8"/>
      </g>
     </g>
     <g id="text_5">
      <!-- 40 -->
      <g transform="translate(675.924223 441.059707) scale(0.1 -0.1)">
       <defs>
        <path id="DejaVuSans-34" d="M 2419 4116 
L 825 1625 
L 2419 1625 
L 2419 4116 
z
M 2253 4666 
L 3047 4666 
L 3047 1625 
L 3713 1625 
L 3713 1100 
L 3047 1100 
L 3047 0 
L 2419 0 
L 2419 1100 
L 313 1100 
L 313 1709 
L 2253 4666 
z
" transform="scale(0.015625)"/>
       </defs>
       <use xlink:href="#DejaVuSans-34"/>
       <use xlink:href="#DejaVuSans-30" transform="translate(63.623047 0)"/>
      </g>
     </g>
    </g>
    <g id="text_6">
     <!-- x / chord direction -->
     <g transform="translate(473.679447 454.737832) scale(0.1 -0.1)">
      <defs>
       <path id="DejaVuSans-78" d="M 3513 3500 
L 2247 1797 
L 3578 0 
L 2900 0 
L 1881 1375 
L 863 0 
L 184 0 
L 1544 1831 
L 300 3500 
L 978 3500 
L 1906 2253 
L 2834 3500 
L 3513 3500 
z
" transform="scale(0.015625)"/>
       <path id="DejaVuSans-20" transform="scale(0.015625)"/>
       <path id="DejaVuSans-2f" d="M 1625 4666 
L 2156 4666 
L 531 -594 
L 0 -594 
L 1625 4666 
z
" transform="scale(0.015625)"/>
       <path id="DejaVuSans-63" d="M 3122 3366 
L 3122 2828 
Q 2878 2963 2633 3030 
Q 2388 3097 2138 3097 
Q 1578 3097 1268 2742 
Q 959 2388 959 1747 
Q 959 1106 1268 751 
Q 1578 397 2138 397 
Q 2388 397 2633 464 
Q 2878 531 3122 666 
L 3122 134 
Q 2881 22 2623 -34 
Q 2366 -91 2075 -91 
Q 1284 -91 818 406 
Q 353 903 353 1747 
Q 353 2603 823 3093 
Q 1294 3584 2113 3584 
Q 2378 3584 2631 3529 
Q 2884 3475 3122 3366 
z
" transform="scale(0.015625)"/>
       <path id="DejaVuSans-68" d="M 3513 2113 
L 3513 0 
L 2938 0 
L 2938 2094 
Q 2938 2591 2744 2837 
Q 2550 3084 2163 3084 
Q 1697 3084 1428 2787 
Q 1159 2491 1159 1978 
L 1159 0 
L 581 0 
L 581 4863 
L 1159 4863 
L 1159 2956 
Q 1366 3272 1645 3428 
Q 1925 3584 2291 3584 
Q 2894 3584 3203 3211 
Q 3513 2838 3513 2113 
z
" transform="scale(0.015625)"/>
       <path id="DejaVuSans-6f" d="M 1959 3097 
Q 1497 3097 1228 2736 
Q 959 2375 959 1747 
Q 959 1119 1226 758 
Q 1494 397 1959 397 
Q 2419 397 2687 759 
Q 2956 1122 2956 1747 
Q 2956 2369 2687 2733 
Q 2419 3097 1959 3097 
z
M 1959 3584 
Q 2709 3584 3137 3096 
Q 3566 2609 3566 1747 
Q 3566 888 3137 398 
Q 2709 -91 1959 -91 
Q 1206 -91 779 398 
Q 353 888 353 1747 
Q 353 2609 779 3096 
Q 1206 3584 1959 3584 
z
" transform="scale(0.015625)"/>
       <path id="DejaVuSans-72" d="M 2631 2963 
Q 2534 3019 2420 3045 
Q 2306 3072 2169 3072 
Q 1681 3072 1420 2755 
Q 1159 2438 1159 1844 
L 1159 0 
L 581 0 
L 581 3500 
L 1159 3500 
L 1159 2956 
Q 1341 3275 1631 3429 
Q 1922 3584 2338 3584 
Q 2397 3584 2469 3576 
Q 2541 3569 2628 3553 
L 2631 2963 
z
" transform="scale(0.015625)"/>
       <path id="DejaVuSans-64" d="M 2906 2969 
L 2906 4863 
L 3481 4863 
L 3481 0 
L 2906 0 
L 2906 525 
Q 2725 213 2448 61 
Q 2172 -91 1784 -91 
Q 1150 -91 751 415 
Q 353 922 353 1747 
Q 353 2572 751 3078 
Q 1150 3584 1784 3584 
Q 2172 3584 2448 3432 
Q 2725 3281 2906 2969 
z
M 947 1747 
Q 947 1113 1208 752 
Q 1469 391 1925 391 
Q 2381 391 2643 752 
Q 2906 1113 2906 1747 
Q 2906 2381 2643 2742 
Q 2381 3103 1925 3103 
Q 1469 3103 1208 2742 
Q 947 2381 947 1747 
z
" transform="scale(0.015625)"/>
       <path id="DejaVuSans-69" d="M 603 3500 
L 1178 3500 
L 1178 0 
L 603 0 
L 603 3500 
z
M 603 4863 
L 1178 4863 
L 1178 4134 
L 603 4134 
L 603 4863 
z
" transform="scale(0.015625)"/>
       <path id="DejaVuSans-65" d="M 3597 1894 
L 3597 1613 
L 953 1613 
Q 991 1019 1311 708 
Q 1631 397 2203 397 
Q 2534 397 2845 478 
Q 3156 559 3463 722 
L 3463 178 
Q 3153 47 2828 -22 
Q 2503 -91 2169 -91 
Q 1331 -91 842 396 
Q 353 884 353 1716 
Q 353 2575 817 3079 
Q 1281 3584 2069 3584 
Q 2775 3584 3186 3129 
Q 3597 2675 3597 1894 
z
M 3022 2063 
Q 3016 2534 2758 2815 
Q 2500 3097 2075 3097 
Q 1594 3097 1305 2825 
Q 1016 2553 972 2059 
L 3022 2063 
z
" transform="scale(0.015625)"/>
       <path id="DejaVuSans-74" d="M 1172 4494 
L 1172 3500 
L 2356 3500 
L 2356 3053 
L 1172 3053 
L 1172 1153 
Q 1172 725 1289 603 
Q 1406 481 1766 481 
L 2356 481 
L 2356 0 
L 1766 0 
Q 1100 0 847 248 
Q 594 497 594 1153 
L 594 3053 
L 172 3053 
L 172 3500 
L 594 3500 
L 594 4494 
L 1172 4494 
z
" transform="scale(0.015625)"/>
       <path id="DejaVuSans-6e" d="M 3513 2113 
L 3513 0 
L 2938 0 
L 2938 2094 
Q 2938 2591 2744 2837 
Q 2550 3084 2163 3084 
Q 1697 3084 1428 2787 
Q 1159 2491 1159 1978 
L 1159 0 
L 581 0 
L 581 3500 
L 1159 3500 
L 1159 2956 
Q 1366 3272 1645 3428 
Q 1925 3584 2291 3584 
Q 2894 3584 3203 3211 
Q 3513 2838 3513 2113 
z
" transform="scale(0.015625)"/>
      </defs>
      <use xlink:href="#DejaVuSans-78"/>
      <use xlink:href="#DejaVuSans-20" transform="translate(59.179688 0)"/>
      <use xlink:href="#DejaVuSans-2f" transform="translate(90.966797 0)"/>
      <use xlink:href="#DejaVuSans-20" transform="translate(124.658203 0)"/>
      <use xlink:href="#DejaVuSans-63" transform="translate(156.445312 0)"/>
      <use xlink:href="#DejaVuSans-68" transform="translate(211.425781 0)"/>
      <use xlink:href="#DejaVuSans-6f" transform="translate(274.804688 0)"/>
      <use xlink:href="#DejaVuSans-72" transform="translate(335.986328 0)"/>
      <use xlink:href="#DejaVuSans-64" transform="translate(375.349609 0)"/>
      <use xlink:href="#DejaVuSans-20" transform="translate(438.826172 0)"/>
      <use xlink:href="#DejaVuSans-64" transform="translate(470.613281 0)"/>
      <use xlink:href="#DejaVuSans-69" transform="translate(534.089844 0)"/>
      <use xlink:href="#DejaVuSans-72" transform="translate(561.873047 0)"/>
      <use xlink:href="#DejaVuSans-65" transform="translate(600.736328 0)"/>
      <use xlink:href="#DejaVuSans-63" transform="translate(662.259766 0)"/>
      <use xlink:href="#DejaVuSans-74" transform="translate(717.240234 0)"/>
      <use xlink:href="#DejaVuSans-69" transform="translate(756.449219 0)"/>
      <use xlink:href="#DejaVuSans-6f" transform="translate(784.232422 0)"/>
      <use xlink:href="#DejaVuSans-6e" transform="translate(845.414062 0)"/>
     </g>
    </g>
   </g>
   <g id="matplotlib.axis_2">
    <g id="ytick_1">
     <g id="line2d_11">
      <path d="M 284.91583 408.091126 
L 753.322752 408.091126 
" clip-path="url(#pd9a67671d6)" style="fill: none; stroke: #b0b0b0; stroke-opacity: 0.25; stroke-width: 0.4; stroke-linecap: square"/>
     </g>
     <g id="line2d_12">
      <defs>
       <path id="me204130ee1" d="M 0 0 
L -3.5 0 
" style="stroke: #000000; stroke-width: 0.8"/>
      </defs>
      <g>
       <use xlink:href="#me204130ee1" x="284.91583" y="408.091126" style="stroke: #000000; stroke-width: 0.8"/>
      </g>
     </g>
     <g id="text_7">
      <!-- 0 -->
      <g transform="translate(271.55333 411.890345) scale(0.1 -0.1)">
       <use xlink:href="#DejaVuSans-30"/>
      </g>
     </g>
    </g>
    <g id="ytick_2">
     <g id="line2d_13">
      <path d="M 284.91583 361.584435 
L 753.322752 361.584435 
" clip-path="url(#pd9a67671d6)" style="fill: none; stroke: #b0b0b0; stroke-opacity: 0.25; stroke-width: 0.4; stroke-linecap: square"/>
     </g>
     <g id="line2d_14">
      <g>
       <use xlink:href="#me204130ee1" x="284.91583" y="361.584435" style="stroke: #000000; stroke-width: 0.8"/>
      </g>
     </g>
     <g id="text_8">
      <!-- 5 -->
      <g transform="translate(271.55333 365.383654) scale(0.1 -0.1)">
       <defs>
        <path id="DejaVuSans-35" d="M 691 4666 
L 3169 4666 
L 3169 4134 
L 1269 4134 
L 1269 2991 
Q 1406 3038 1543 3061 
Q 1681 3084 1819 3084 
Q 2600 3084 3056 2656 
Q 3513 2228 3513 1497 
Q 3513 744 3044 326 
Q 2575 -91 1722 -91 
Q 1428 -91 1123 -41 
Q 819 9 494 109 
L 494 744 
Q 775 591 1075 516 
Q 1375 441 1709 441 
Q 2250 441 2565 725 
Q 2881 1009 2881 1497 
Q 2881 1984 2565 2268 
Q 2250 2553 1709 2553 
Q 1456 2553 1204 2497 
Q 953 2441 691 2322 
L 691 4666 
z
" transform="scale(0.015625)"/>
       </defs>
       <use xlink:href="#DejaVuSans-35"/>
      </g>
     </g>
    </g>
    <g id="ytick_3">
     <g id="line2d_15">
      <path d="M 284.91583 315.077744 
L 753.322752 315.077744 
" clip-path="url(#pd9a67671d6)" style="fill: none; stroke: #b0b0b0; stroke-opacity: 0.25; stroke-width: 0.4; stroke-linecap: square"/>
     </g>
     <g id="line2d_16">
      <g>
       <use xlink:href="#me204130ee1" x="284.91583" y="315.077744" style="stroke: #000000; stroke-width: 0.8"/>
      </g>
     </g>
     <g id="text_9">
      <!-- 10 -->
      <g transform="translate(265.19083 318.876963) scale(0.1 -0.1)">
       <use xlink:href="#DejaVuSans-31"/>
       <use xlink:href="#DejaVuSans-30" transform="translate(63.623047 0)"/>
      </g>
     </g>
    </g>
    <g id="ytick_4">
     <g id="line2d_17">
      <path d="M 284.91583 268.571053 
L 753.322752 268.571053 
" clip-path="url(#pd9a67671d6)" style="fill: none; stroke: #b0b0b0; stroke-opacity: 0.25; stroke-width: 0.4; stroke-linecap: square"/>
     </g>
     <g id="line2d_18">
      <g>
       <use xlink:href="#me204130ee1" x="284.91583" y="268.571053" style="stroke: #000000; stroke-width: 0.8"/>
      </g>
     </g>
     <g id="text_10">
      <!-- 15 -->
      <g transform="translate(265.19083 272.370272) scale(0.1 -0.1)">
       <use xlink:href="#DejaVuSans-31"/>
       <use xlink:href="#DejaVuSans-35" transform="translate(63.623047 0)"/>
      </g>
     </g>
    </g>
    <g id="ytick_5">
     <g id="line2d_19">
      <path d="M 284.91583 222.064363 
L 753.322752 222.064363 
" clip-path="url(#pd9a67671d6)" style="fill: none; stroke: #b0b0b0; stroke-opacity: 0.25; stroke-width: 0.4; stroke-linecap: square"/>
     </g>
     <g id="line2d_20">
      <g>
       <use xlink:href="#me204130ee1" x="284.91583" y="222.064363" style="stroke: #000000; stroke-width: 0.8"/>
      </g>
     </g>
     <g id="text_11">
      <!-- 20 -->
      <g transform="translate(265.19083 225.863581) scale(0.1 -0.1)">
       <use xlink:href="#DejaVuSans-32"/>
       <use xlink:href="#DejaVuSans-30" transform="translate(63.623047 0)"/>
      </g>
     </g>
    </g>
    <g id="ytick_6">
     <g id="line2d_21">
      <path d="M 284.91583 175.557672 
L 753.322752 175.557672 
" clip-path="url(#pd9a67671d6)" style="fill: none; stroke: #b0b0b0; stroke-opacity: 0.25; stroke-width: 0.4; stroke-linecap: square"/>
     </g>
     <g id="line2d_22">
      <g>
       <use xlink:href="#me204130ee1" x="284.91583" y="175.557672" style="stroke: #000000; stroke-width: 0.8"/>
      </g>
     </g>
     <g id="text_12">
      <!-- 25 -->
      <g transform="translate(265.19083 179.35689) scale(0.1 -0.1)">
       <use xlink:href="#DejaVuSans-32"/>
       <use xlink:href="#DejaVuSans-35" transform="translate(63.623047 0)"/>
      </g>
     </g>
    </g>
    <g id="ytick_7">
     <g id="line2d_23">
      <path d="M 284.91583 129.050981 
L 753.322752 129.050981 
" clip-path="url(#pd9a67671d6)" style="fill: none; stroke: #b0b0b0; stroke-opacity: 0.25; stroke-width: 0.4; stroke-linecap: square"/>
     </g>
     <g id="line2d_24">
      <g>
       <use xlink:href="#me204130ee1" x="284.91583" y="129.050981" style="stroke: #000000; stroke-width: 0.8"/>
      </g>
     </g>
     <g id="text_13">
      <!-- 30 -->
      <g transform="translate(265.19083 132.850199) scale(0.1 -0.1)">
       <use xlink:href="#DejaVuSans-33"/>
       <use xlink:href="#DejaVuSans-30" transform="translate(63.623047 0)"/>
      </g>
     </g>
    </g>
    <g id="ytick_8">
     <g id="line2d_25">
      <path d="M 284.91583 82.54429 
L 753.322752 82.54429 
" clip-path="url(#pd9a67671d6)" style="fill: none; stroke: #b0b0b0; stroke-opacity: 0.25; stroke-width: 0.4; stroke-linecap: square"/>
     </g>
     <g id="line2d_26">
      <g>
       <use xlink:href="#me204130ee1" x="284.91583" y="82.54429" style="stroke: #000000; stroke-width: 0.8"/>
      </g>
     </g>
     <g id="text_14">
      <!-- 35 -->
      <g transform="translate(265.19083 86.343509) scale(0.1 -0.1)">
       <use xlink:href="#DejaVuSans-33"/>
       <use xlink:href="#DejaVuSans-35" transform="translate(63.623047 0)"/>
      </g>
     </g>
    </g>
    <g id="ytick_9">
     <g id="line2d_27">
      <path d="M 284.91583 36.037599 
L 753.322752 36.037599 
" clip-path="url(#pd9a67671d6)" style="fill: none; stroke: #b0b0b0; stroke-opacity: 0.25; stroke-width: 0.4; stroke-linecap: square"/>
     </g>
     <g id="line2d_28">
      <g>
       <use xlink:href="#me204130ee1" x="284.91583" y="36.037599" style="stroke: #000000; stroke-width: 0.8"/>
      </g>
     </g>
     <g id="text_15">
      <!-- 40 -->
      <g transform="translate(265.19083 39.836818) scale(0.1 -0.1)">
       <use xlink:href="#DejaVuSans-34"/>
       <use xlink:href="#DejaVuSans-30" transform="translate(63.623047 0)"/>
      </g>
     </g>
    </g>
    <g id="text_16">
     <!-- semispan y -->
     <g transform="translate(259.111143 252.890478) rotate(-90) scale(0.1 -0.1)">
      <defs>
       <path id="DejaVuSans-73" d="M 2834 3397 
L 2834 2853 
Q 2591 2978 2328 3040 
Q 2066 3103 1784 3103 
Q 1356 3103 1142 2972 
Q 928 2841 928 2578 
Q 928 2378 1081 2264 
Q 1234 2150 1697 2047 
L 1894 2003 
Q 2506 1872 2764 1633 
Q 3022 1394 3022 966 
Q 3022 478 2636 193 
Q 2250 -91 1575 -91 
Q 1294 -91 989 -36 
Q 684 19 347 128 
L 347 722 
Q 666 556 975 473 
Q 1284 391 1588 391 
Q 1994 391 2212 530 
Q 2431 669 2431 922 
Q 2431 1156 2273 1281 
Q 2116 1406 1581 1522 
L 1381 1569 
Q 847 1681 609 1914 
Q 372 2147 372 2553 
Q 372 3047 722 3315 
Q 1072 3584 1716 3584 
Q 2034 3584 2315 3537 
Q 2597 3491 2834 3397 
z
" transform="scale(0.015625)"/>
       <path id="DejaVuSans-6d" d="M 3328 2828 
Q 3544 3216 3844 3400 
Q 4144 3584 4550 3584 
Q 5097 3584 5394 3201 
Q 5691 2819 5691 2113 
L 5691 0 
L 5113 0 
L 5113 2094 
Q 5113 2597 4934 2840 
Q 4756 3084 4391 3084 
Q 3944 3084 3684 2787 
Q 3425 2491 3425 1978 
L 3425 0 
L 2847 0 
L 2847 2094 
Q 2847 2600 2669 2842 
Q 2491 3084 2119 3084 
Q 1678 3084 1418 2786 
Q 1159 2488 1159 1978 
L 1159 0 
L 581 0 
L 581 3500 
L 1159 3500 
L 1159 2956 
Q 1356 3278 1631 3431 
Q 1906 3584 2284 3584 
Q 2666 3584 2933 3390 
Q 3200 3197 3328 2828 
z
" transform="scale(0.015625)"/>
       <path id="DejaVuSans-70" d="M 1159 525 
L 1159 -1331 
L 581 -1331 
L 581 3500 
L 1159 3500 
L 1159 2969 
Q 1341 3281 1617 3432 
Q 1894 3584 2278 3584 
Q 2916 3584 3314 3078 
Q 3713 2572 3713 1747 
Q 3713 922 3314 415 
Q 2916 -91 2278 -91 
Q 1894 -91 1617 61 
Q 1341 213 1159 525 
z
M 3116 1747 
Q 3116 2381 2855 2742 
Q 2594 3103 2138 3103 
Q 1681 3103 1420 2742 
Q 1159 2381 1159 1747 
Q 1159 1113 1420 752 
Q 1681 391 2138 391 
Q 2594 391 2855 752 
Q 3116 1113 3116 1747 
z
" transform="scale(0.015625)"/>
       <path id="DejaVuSans-61" d="M 2194 1759 
Q 1497 1759 1228 1600 
Q 959 1441 959 1056 
Q 959 750 1161 570 
Q 1363 391 1709 391 
Q 2188 391 2477 730 
Q 2766 1069 2766 1631 
L 2766 1759 
L 2194 1759 
z
M 3341 1997 
L 3341 0 
L 2766 0 
L 2766 531 
Q 2569 213 2275 61 
Q 1981 -91 1556 -91 
Q 1019 -91 701 211 
Q 384 513 384 1019 
Q 384 1609 779 1909 
Q 1175 2209 1959 2209 
L 2766 2209 
L 2766 2266 
Q 2766 2663 2505 2880 
Q 2244 3097 1772 3097 
Q 1472 3097 1187 3025 
Q 903 2953 641 2809 
L 641 3341 
Q 956 3463 1253 3523 
Q 1550 3584 1831 3584 
Q 2591 3584 2966 3190 
Q 3341 2797 3341 1997 
z
" transform="scale(0.015625)"/>
       <path id="DejaVuSans-79" d="M 2059 -325 
Q 1816 -950 1584 -1140 
Q 1353 -1331 966 -1331 
L 506 -1331 
L 506 -850 
L 844 -850 
Q 1081 -850 1212 -737 
Q 1344 -625 1503 -206 
L 1606 56 
L 191 3500 
L 800 3500 
L 1894 763 
L 2988 3500 
L 3597 3500 
L 2059 -325 
z
" transform="scale(0.015625)"/>
      </defs>
      <use xlink:href="#DejaVuSans-73"/>
      <use xlink:href="#DejaVuSans-65" transform="translate(52.099609 0)"/>
      <use xlink:href="#DejaVuSans-6d" transform="translate(113.623047 0)"/>
      <use xlink:href="#DejaVuSans-69" transform="translate(211.035156 0)"/>
      <use xlink:href="#DejaVuSans-73" transform="translate(238.818359 0)"/>
      <use xlink:href="#DejaVuSans-70" transform="translate(290.917969 0)"/>
      <use xlink:href="#DejaVuSans-61" transform="translate(354.394531 0)"/>
      <use xlink:href="#DejaVuSans-6e" transform="translate(415.673828 0)"/>
      <use xlink:href="#DejaVuSans-20" transform="translate(479.052734 0)"/>
      <use xlink:href="#DejaVuSans-79" transform="translate(510.839844 0)"/>
     </g>
    </g>
   </g>
   <g id="line2d_29">
    <path d="M 310.233195 408.091126 
L 310.285224 406.61857 
L 310.613854 405.146013 
L 310.943263 404.409735 
L 311.404 403.673457 
L 312.005595 402.937178 
L 313.646791 401.464622 
L 315.858301 399.992065 
L 318.578063 398.519509 
L 323.38017 396.310674 
L 338.790504 389.684169 
L 343.049158 387.475335 
L 346.75933 385.2665 
L 413.797406 343.298638 
L 416.916418 341.089803 
L 420.611527 338.14469 
L 466.15139 299.85822 
L 468.339444 297.649385 
L 470.077862 295.44055 
L 471.96835 292.495437 
L 629.314933 40.688268 
L 629.314933 40.688268 
" clip-path="url(#pd9a67671d6)" style="fill: none; stroke: #0f172a; stroke-opacity: 0.95; stroke-width: 2.4; stroke-linecap: square"/>
   </g>
   <g id="line2d_30">
    <path d="M 676.49137 341.826082 
L 676.017267 341.089803 
L 674.372226 340.353525 
L 663.880322 337.408412 
L 561.917429 300.594498 
L 558.712306 299.121942 
L 557.494424 298.385664 
L 556.564642 297.649385 
L 555.926234 296.913107 
L 555.566104 296.176829 
L 555.454788 295.44055 
L 555.54645 294.704272 
L 556.074026 293.231716 
L 659.079215 40.688268 
L 659.079215 40.688268 
" clip-path="url(#pd9a67671d6)" style="fill: none; stroke: #0f172a; stroke-opacity: 0.95; stroke-width: 2.4; stroke-linecap: square"/>
   </g>
   <g id="line2d_31">
    <path d="M 682.286723 408.091126 
L 676.504811 341.958612 
" clip-path="url(#pd9a67671d6)" style="fill: none; stroke-dasharray: 15.6,10.4; stroke-dashoffset: 0; stroke: #0f172a; stroke-opacity: 0.95; stroke-width: 2.6"/>
   </g>
   <g id="line2d_32">
    <path d="M 313.863488 408.091126 
L 313.905127 406.61857 
L 314.172029 405.146013 
L 314.82551 403.673457 
L 315.964458 402.2009 
L 317.633394 400.728344 
L 319.830533 399.255787 
L 322.515852 397.78323 
L 325.619146 396.310674 
L 330.851784 394.101839 
L 347.314374 387.475335 
L 352.048143 385.2665 
L 356.212658 383.057665 
L 363.7493 378.639995 
L 423.428755 343.298638 
L 426.561797 341.089803 
L 429.23875 338.880969 
L 438.940024 330.045629 
L 472.689295 299.121942 
L 474.647367 296.913107 
L 476.272067 294.704272 
L 483.518521 283.660098 
L 642.717908 40.688268 
L 642.717908 40.688268 
" clip-path="url(#pd9a67671d6)" style="fill: none; stroke: #1d4ed8; stroke-opacity: 0.8; stroke-width: 1.6; stroke-linecap: square"/>
   </g>
   <g id="line2d_33">
    <path d="M 719.229753 341.826082 
L 718.678211 341.089803 
L 716.618829 340.353525 
L 703.344078 337.408412 
L 574.982949 300.594498 
L 570.923895 299.121942 
L 569.368016 298.385664 
L 568.166868 297.649385 
L 567.324483 296.913107 
L 566.824738 296.176829 
L 566.631351 295.44055 
L 566.687887 294.704272 
L 567.224829 293.231716 
L 674.733315 40.688268 
L 674.733315 40.688268 
" clip-path="url(#pd9a67671d6)" style="fill: none; stroke: #1d4ed8; stroke-opacity: 0.8; stroke-width: 1.6; stroke-linecap: square"/>
   </g>
   <g id="line2d_34">
    <path d="M 721.385366 408.091126 
L 719.236448 341.958612 
" clip-path="url(#pd9a67671d6)" style="fill: none; stroke-dasharray: 10.8,7.2; stroke-dashoffset: 0; stroke: #1d4ed8; stroke-opacity: 0.8; stroke-width: 1.8"/>
   </g>
   <g id="line2d_35">
    <path d="M 310.665271 408.091126 
L 310.737578 406.61857 
L 310.896637 405.882291 
L 311.184578 405.146013 
L 311.624467 404.409735 
L 312.230684 403.673457 
L 313.009786 402.937178 
L 315.078892 401.464622 
L 317.760376 399.992065 
L 320.912606 398.519509 
L 335.945169 391.893004 
L 339.860899 389.684169 
L 353.902277 380.84883 
L 413.362508 343.298638 
L 416.414957 341.089803 
L 419.127621 338.880969 
L 432.591162 327.100516 
L 463.608315 299.85822 
L 465.690241 297.649385 
L 467.32677 295.44055 
L 469.085434 292.495437 
L 615.201471 40.688268 
L 615.201471 40.688268 
" clip-path="url(#pd9a67671d6)" style="fill: none; stroke: #0f766e; stroke-opacity: 0.8; stroke-width: 1.6; stroke-linecap: square"/>
   </g>
   <g id="line2d_36">
    <path d="M 685.044147 341.826082 
L 684.631087 341.089803 
L 682.867849 340.353525 
L 671.304374 337.408412 
L 560.39824 300.594498 
L 556.889203 299.121942 
L 555.543065 298.385664 
L 554.502779 297.649385 
L 553.771821 296.913107 
L 553.336287 296.176829 
L 553.164897 295.44055 
L 553.208992 294.704272 
L 553.662645 293.231716 
L 644.76186 40.688268 
L 644.76186 40.688268 
" clip-path="url(#pd9a67671d6)" style="fill: none; stroke: #0f766e; stroke-opacity: 0.8; stroke-width: 1.6; stroke-linecap: square"/>
   </g>
   <g id="line2d_37">
    <path d="M 679.701239 408.091126 
L 685.035595 341.958612 
" clip-path="url(#pd9a67671d6)" style="fill: none; stroke-dasharray: 10.8,7.2; stroke-dashoffset: 0; stroke: #0f766e; stroke-opacity: 0.8; stroke-width: 1.8"/>
   </g>
   <g id="line2d_38">
    <path d="M 306.207054 408.091126 
L 306.309928 405.882291 
L 306.650426 404.409735 
L 307.337099 402.937178 
L 308.432697 401.464622 
L 309.963427 399.992065 
L 311.924143 398.519509 
L 314.283524 397.046952 
L 318.451192 394.838117 
L 323.156659 392.629283 
L 337.747792 386.002778 
L 342.003137 383.793943 
L 345.784093 381.585108 
L 350.301908 378.639995 
L 404.185173 342.56236 
L 408.14349 339.617247 
L 418.35613 331.518186 
L 458.083008 299.85822 
L 459.65581 298.385664 
L 460.998608 296.913107 
L 462.613446 294.704272 
L 467.146708 287.341489 
L 618.515613 40.688268 
L 618.515613 40.688268 
" clip-path="url(#pd9a67671d6)" style="fill: none; stroke: #7c3aed; stroke-opacity: 0.8; stroke-width: 1.6; stroke-linecap: square"/>
   </g>
   <g id="line2d_39">
    <path d="M 659.655378 341.826082 
L 659.025274 341.089803 
L 657.463565 340.353525 
L 648.104531 337.408412 
L 554.360003 300.594498 
L 551.418355 299.121942 
L 550.303467 298.385664 
L 549.455153 297.649385 
L 548.876441 296.913107 
L 548.555215 296.176829 
L 548.464211 295.44055 
L 548.56102 294.704272 
L 549.073165 293.231716 
L 648.496048 40.688268 
L 648.496048 40.688268 
" clip-path="url(#pd9a67671d6)" style="fill: none; stroke: #7c3aed; stroke-opacity: 0.8; stroke-width: 1.6; stroke-linecap: square"/>
   </g>
   <g id="line2d_40">
    <path d="M 687.027716 408.091126 
L 659.711595 341.958612 
" clip-path="url(#pd9a67671d6)" style="fill: none; stroke-dasharray: 10.8,7.2; stroke-dashoffset: 0; stroke: #7c3aed; stroke-opacity: 0.8; stroke-width: 1.8"/>
   </g>
   <g id="line2d_41">
    <path d="M 320.247312 408.091126 
L 320.316987 406.61857 
L 320.470162 405.882291 
L 320.747283 405.146013 
L 321.170364 404.409735 
L 321.753006 403.673457 
L 322.501238 402.937178 
L 324.485776 401.464622 
L 327.052735 399.992065 
L 331.680319 397.78323 
L 341.463959 393.365561 
L 345.604323 391.156726 
L 349.111257 388.947891 
L 418.925944 342.56236 
L 422.941526 339.617247 
L 434.29483 330.781908 
L 473.849505 299.85822 
L 475.454647 298.385664 
L 476.8268 296.913107 
L 477.974021 295.44055 
L 479.886495 292.495437 
L 638.463663 40.688268 
L 638.463663 40.688268 
" clip-path="url(#pd9a67671d6)" style="fill: none; stroke: #c2410c; stroke-opacity: 0.8; stroke-width: 1.6; stroke-linecap: square"/>
   </g>
   <g id="line2d_42">
    <path d="M 720.160032 341.826082 
L 719.542609 341.089803 
L 717.537593 340.353525 
L 704.882014 337.408412 
L 581.271953 300.594498 
L 577.355682 299.121942 
L 575.850379 298.385664 
L 574.684218 297.649385 
L 573.861053 296.913107 
L 573.36547 296.176829 
L 573.162782 295.44055 
L 573.199034 294.704272 
L 573.676779 293.231716 
L 670.355244 40.688268 
L 670.355244 40.688268 
" clip-path="url(#pd9a67671d6)" style="fill: none; stroke: #c2410c; stroke-opacity: 0.8; stroke-width: 1.6; stroke-linecap: square"/>
   </g>
   <g id="line2d_43">
    <path d="M 732.031529 408.091126 
L 720.185968 341.958612 
" clip-path="url(#pd9a67671d6)" style="fill: none; stroke-dasharray: 10.8,7.2; stroke-dashoffset: 0; stroke: #c2410c; stroke-opacity: 0.8; stroke-width: 1.8"/>
   </g>
   <g id="patch_3">
    <path d="M 284.91583 426.461269 
L 284.91583 22.318125 
" style="fill: none; stroke: #000000; stroke-width: 0.8; stroke-linejoin: miter; stroke-linecap: square"/>
   </g>
   <g id="patch_4">
    <path d="M 753.322752 426.461269 
L 753.322752 22.318125 
" style="fill: none; stroke: #000000; stroke-width: 0.8; stroke-linejoin: miter; stroke-linecap: square"/>
   </g>
   <g id="patch_5">
    <path d="M 284.91583 426.461269 
L 753.322752 426.461269 
" style="fill: none; stroke: #000000; stroke-width: 0.8; stroke-linejoin: miter; stroke-linecap: square"/>
   </g>
   <g id="patch_6">
    <path d="M 284.91583 22.318125 
L 753.322752 22.318125 
" style="fill: none; stroke: #000000; stroke-width: 0.8; stroke-linejoin: miter; stroke-linecap: square"/>
   </g>
   <g id="text_17">
    <!-- Design-space variants: planform overlay -->
    <g transform="translate(397.354916 16.318125) scale(0.12 -0.12)">
     <defs>
      <path id="DejaVuSans-44" d="M 1259 4147 
L 1259 519 
L 2022 519 
Q 2988 519 3436 956 
Q 3884 1394 3884 2338 
Q 3884 3275 3436 3711 
Q 2988 4147 2022 4147 
L 1259 4147 
z
M 628 4666 
L 1925 4666 
Q 3281 4666 3915 4102 
Q 4550 3538 4550 2338 
Q 4550 1131 3912 565 
Q 3275 0 1925 0 
L 628 0 
L 628 4666 
z
" transform="scale(0.015625)"/>
      <path id="DejaVuSans-67" d="M 2906 1791 
Q 2906 2416 2648 2759 
Q 2391 3103 1925 3103 
Q 1463 3103 1205 2759 
Q 947 2416 947 1791 
Q 947 1169 1205 825 
Q 1463 481 1925 481 
Q 2391 481 2648 825 
Q 2906 1169 2906 1791 
z
M 3481 434 
Q 3481 -459 3084 -895 
Q 2688 -1331 1869 -1331 
Q 1566 -1331 1297 -1286 
Q 1028 -1241 775 -1147 
L 775 -588 
Q 1028 -725 1275 -790 
Q 1522 -856 1778 -856 
Q 2344 -856 2625 -561 
Q 2906 -266 2906 331 
L 2906 616 
Q 2728 306 2450 153 
Q 2172 0 1784 0 
Q 1141 0 747 490 
Q 353 981 353 1791 
Q 353 2603 747 3093 
Q 1141 3584 1784 3584 
Q 2172 3584 2450 3431 
Q 2728 3278 2906 2969 
L 2906 3500 
L 3481 3500 
L 3481 434 
z
" transform="scale(0.015625)"/>
      <path id="DejaVuSans-2d" d="M 313 2009 
L 1997 2009 
L 1997 1497 
L 313 1497 
L 313 2009 
z
" transform="scale(0.015625)"/>
      <path id="DejaVuSans-76" d="M 191 3500 
L 800 3500 
L 1894 563 
L 2988 3500 
L 3597 3500 
L 2284 0 
L 1503 0 
L 191 3500 
z
" transform="scale(0.015625)"/>
      <path id="DejaVuSans-3a" d="M 750 794 
L 1409 794 
L 1409 0 
L 750 0 
L 750 794 
z
M 750 3309 
L 1409 3309 
L 1409 2516 
L 750 2516 
L 750 3309 
z
" transform="scale(0.015625)"/>
      <path id="DejaVuSans-6c" d="M 603 4863 
L 1178 4863 
L 1178 0 
L 603 0 
L 603 4863 
z
" transform="scale(0.015625)"/>
      <path id="DejaVuSans-66" d="M 2375 4863 
L 2375 4384 
L 1825 4384 
Q 1516 4384 1395 4259 
Q 1275 4134 1275 3809 
L 1275 3500 
L 2222 3500 
L 2222 3053 
L 1275 3053 
L 1275 0 
L 697 0 
L 697 3053 
L 147 3053 
L 147 3500 
L 697 3500 
L 697 3744 
Q 697 4328 969 4595 
Q 1241 4863 1831 4863 
L 2375 4863 
z
" transform="scale(0.015625)"/>
     </defs>
     <use xlink:href="#DejaVuSans-44"/>
     <use xlink:href="#DejaVuSans-65" transform="translate(77.001953 0)"/>
     <use xlink:href="#DejaVuSans-73" transform="translate(138.525391 0)"/>
     <use xlink:href="#DejaVuSans-69" transform="translate(190.625 0)"/>
     <use xlink:href="#DejaVuSans-67" transform="translate(218.408203 0)"/>
     <use xlink:href="#DejaVuSans-6e" transform="translate(281.884766 0)"/>
     <use xlink:href="#DejaVuSans-2d" transform="translate(345.263672 0)"/>
     <use xlink:href="#DejaVuSans-73" transform="translate(381.347656 0)"/>
     <use xlink:href="#DejaVuSans-70" transform="translate(433.447266 0)"/>
     <use xlink:href="#DejaVuSans-61" transform="translate(496.923828 0)"/>
     <use xlink:href="#DejaVuSans-63" transform="translate(558.203125 0)"/>
     <use xlink:href="#DejaVuSans-65" transform="translate(613.183594 0)"/>
     <use xlink:href="#DejaVuSans-20" transform="translate(674.707031 0)"/>
     <use xlink:href="#DejaVuSans-76" transform="translate(706.494141 0)"/>
     <use xlink:href="#DejaVuSans-61" transform="translate(765.673828 0)"/>
     <use xlink:href="#DejaVuSans-72" transform="translate(826.953125 0)"/>
     <use xlink:href="#DejaVuSans-69" transform="translate(868.066406 0)"/>
     <use xlink:href="#DejaVuSans-61" transform="translate(895.849609 0)"/>
     <use xlink:href="#DejaVuSans-6e" transform="translate(957.128906 0)"/>
     <use xlink:href="#DejaVuSans-74" transform="translate(1020.507812 0)"/>
     <use xlink:href="#DejaVuSans-73" transform="translate(1059.716797 0)"/>
     <use xlink:href="#DejaVuSans-3a" transform="translate(1111.816406 0)"/>
     <use xlink:href="#DejaVuSans-20" transform="translate(1145.507812 0)"/>
     <use xlink:href="#DejaVuSans-70" transform="translate(1177.294922 0)"/>
     <use xlink:href="#DejaVuSans-6c" transform="translate(1240.771484 0)"/>
     <use xlink:href="#DejaVuSans-61" transform="translate(1268.554688 0)"/>
     <use xlink:href="#DejaVuSans-6e" transform="translate(1329.833984 0)"/>
     <use xlink:href="#DejaVuSans-66" transform="translate(1393.212891 0)"/>
     <use xlink:href="#DejaVuSans-6f" transform="translate(1428.417969 0)"/>
     <use xlink:href="#DejaVuSans-72" transform="translate(1489.599609 0)"/>
     <use xlink:href="#DejaVuSans-6d" transform="translate(1528.962891 0)"/>
     <use xlink:href="#DejaVuSans-20" transform="translate(1626.375 0)"/>
     <use xlink:href="#DejaVuSans-6f" transform="translate(1658.162109 0)"/>
     <use xlink:href="#DejaVuSans-76" transform="translate(1719.34375 0)"/>
     <use xlink:href="#DejaVuSans-65" transform="translate(1778.523438 0)"/>
     <use xlink:href="#DejaVuSans-72" transform="translate(1840.046875 0)"/>
     <use xlink:href="#DejaVuSans-6c" transform="translate(1881.160156 0)"/>
     <use xlink:href="#DejaVuSans-61" transform="translate(1908.943359 0)"/>
     <use xlink:href="#DejaVuSans-79" transform="translate(1970.222656 0)"/>
    </g>
   </g>
   <g id="legend_1">
    <g id="patch_7">
     <path d="M 291.91583 59.674375 
L 492.218955 59.674375 
Q 494.218955 59.674375 494.218955 57.674375 
L 494.218955 29.318125 
Q 494.218955 27.318125 492.218955 27.318125 
L 291.91583 27.318125 
Q 289.91583 27.318125 289.91583 29.318125 
L 289.91583 57.674375 
Q 289.91583 59.674375 291.91583 59.674375 
z
" style="fill: #ffffff; opacity: 0.8; stroke: #cccccc; stroke-linejoin: miter"/>
    </g>
    <g id="line2d_44">
     <path d="M 293.91583 35.416562 
L 303.91583 35.416562 
L 313.91583 35.416562 
" style="fill: none; stroke: #0f172a; stroke-opacity: 0.95; stroke-width: 2.4; stroke-linecap: square"/>
    </g>
    <g id="text_18">
     <!-- reference -->
     <g transform="translate(321.91583 38.916562) scale(0.1 -0.1)">
      <use xlink:href="#DejaVuSans-72"/>
      <use xlink:href="#DejaVuSans-65" transform="translate(38.863281 0)"/>
      <use xlink:href="#DejaVuSans-66" transform="translate(100.386719 0)"/>
      <use xlink:href="#DejaVuSans-65" transform="translate(135.591797 0)"/>
      <use xlink:href="#DejaVuSans-72" transform="translate(197.115234 0)"/>
      <use xlink:href="#DejaVuSans-65" transform="translate(235.978516 0)"/>
      <use xlink:href="#DejaVuSans-6e" transform="translate(297.501953 0)"/>
      <use xlink:href="#DejaVuSans-63" transform="translate(360.880859 0)"/>
      <use xlink:href="#DejaVuSans-65" transform="translate(415.861328 0)"/>
     </g>
    </g>
    <g id="line2d_45">
     <path d="M 293.91583 50.094687 
L 303.91583 50.094687 
L 313.91583 50.094687 
" style="fill: none; stroke: #1d4ed8; stroke-opacity: 0.8; stroke-width: 1.6; stroke-linecap: square"/>
    </g>
    <g id="text_19">
     <!-- v1 -->
     <g transform="translate(321.91583 53.594687) scale(0.1 -0.1)">
      <use xlink:href="#DejaVuSans-76"/>
      <use xlink:href="#DejaVuSans-31" transform="translate(59.179688 0)"/>
     </g>
    </g>
    <g id="line2d_46">
     <path d="M 389.656455 35.416562 
L 399.656455 35.416562 
L 409.656455 35.416562 
" style="fill: none; stroke: #0f766e; stroke-opacity: 0.8; stroke-width: 1.6; stroke-linecap: square"/>
    </g>
    <g id="text_20">
     <!-- v2 -->
     <g transform="translate(417.656455 38.916562) scale(0.1 -0.1)">
      <use xlink:href="#DejaVuSans-76"/>
      <use xlink:href="#DejaVuSans-32" transform="translate(59.179688 0)"/>
     </g>
    </g>
    <g id="line2d_47">
     <path d="M 389.656455 50.094687 
L 399.656455 50.094687 
L 409.656455 50.094687 
" style="fill: none; stroke: #7c3aed; stroke-opacity: 0.8; stroke-width: 1.6; stroke-linecap: square"/>
    </g>
    <g id="text_21">
     <!-- v3 -->
     <g transform="translate(417.656455 53.594687) scale(0.1 -0.1)">
      <use xlink:href="#DejaVuSans-76"/>
      <use xlink:href="#DejaVuSans-33" transform="translate(59.179688 0)"/>
     </g>
    </g>
    <g id="line2d_48">
     <path d="M 449.937705 35.416562 
L 459.937705 35.416562 
L 469.937705 35.416562 
" style="fill: none; stroke: #c2410c; stroke-opacity: 0.8; stroke-width: 1.6; stroke-linecap: square"/>
    </g>
    <g id="text_22">
     <!-- v4 -->
     <g transform="translate(477.937705 38.916562) scale(0.1 -0.1)">
      <use xlink:href="#DejaVuSans-76"/>
      <use xlink:href="#DejaVuSans-34" transform="translate(59.179688 0)"/>
     </g>
    </g>
   </g>
  </g>
  <g id="axes_2">
   <g id="patch_8">
    <path d="M 43.78125 642.190517 
L 494.406479 642.190517 
L 494.406479 543.026523 
L 43.78125 543.026523 
z
" style="fill: #ffffff"/>
   </g>
   <g id="matplotlib.axis_3">
    <g id="xtick_6">
     <g id="line2d_49">
      <path d="M 64.264215 642.190517 
L 64.264215 543.026523 
" clip-path="url(#p8b9b414527)" style="fill: none; stroke: #b0b0b0; stroke-opacity: 0.25; stroke-width: 0.4; stroke-linecap: square"/>
     </g>
     <g id="line2d_50">
      <g>
       <use xlink:href="#mfe233e019a" x="64.264215" y="642.190517" style="stroke: #000000; stroke-width: 0.8"/>
      </g>
     </g>
     <g id="text_23">
      <!-- 0.0 -->
      <g transform="translate(56.312652 656.788954) scale(0.1 -0.1)">
       <defs>
        <path id="DejaVuSans-2e" d="M 684 794 
L 1344 794 
L 1344 0 
L 684 0 
L 684 794 
z
" transform="scale(0.015625)"/>
       </defs>
       <use xlink:href="#DejaVuSans-30"/>
       <use xlink:href="#DejaVuSans-2e" transform="translate(63.623047 0)"/>
       <use xlink:href="#DejaVuSans-30" transform="translate(95.410156 0)"/>
      </g>
     </g>
    </g>
    <g id="xtick_7">
     <g id="line2d_51">
      <path d="M 146.196075 642.190517 
L 146.196075 543.026523 
" clip-path="url(#p8b9b414527)" style="fill: none; stroke: #b0b0b0; stroke-opacity: 0.25; stroke-width: 0.4; stroke-linecap: square"/>
     </g>
     <g id="line2d_52">
      <g>
       <use xlink:href="#mfe233e019a" x="146.196075" y="642.190517" style="stroke: #000000; stroke-width: 0.8"/>
      </g>
     </g>
     <g id="text_24">
      <!-- 0.2 -->
      <g transform="translate(138.244512 656.788954) scale(0.1 -0.1)">
       <use xlink:href="#DejaVuSans-30"/>
       <use xlink:href="#DejaVuSans-2e" transform="translate(63.623047 0)"/>
       <use xlink:href="#DejaVuSans-32" transform="translate(95.410156 0)"/>
      </g>
     </g>
    </g>
    <g id="xtick_8">
     <g id="line2d_53">
      <path d="M 228.127934 642.190517 
L 228.127934 543.026523 
" clip-path="url(#p8b9b414527)" style="fill: none; stroke: #b0b0b0; stroke-opacity: 0.25; stroke-width: 0.4; stroke-linecap: square"/>
     </g>
     <g id="line2d_54">
      <g>
       <use xlink:href="#mfe233e019a" x="228.127934" y="642.190517" style="stroke: #000000; stroke-width: 0.8"/>
      </g>
     </g>
     <g id="text_25">
      <!-- 0.4 -->
      <g transform="translate(220.176372 656.788954) scale(0.1 -0.1)">
       <use xlink:href="#DejaVuSans-30"/>
       <use xlink:href="#DejaVuSans-2e" transform="translate(63.623047 0)"/>
       <use xlink:href="#DejaVuSans-34" transform="translate(95.410156 0)"/>
      </g>
     </g>
    </g>
    <g id="xtick_9">
     <g id="line2d_55">
      <path d="M 310.059794 642.190517 
L 310.059794 543.026523 
" clip-path="url(#p8b9b414527)" style="fill: none; stroke: #b0b0b0; stroke-opacity: 0.25; stroke-width: 0.4; stroke-linecap: square"/>
     </g>
     <g id="line2d_56">
      <g>
       <use xlink:href="#mfe233e019a" x="310.059794" y="642.190517" style="stroke: #000000; stroke-width: 0.8"/>
      </g>
     </g>
     <g id="text_26">
      <!-- 0.6 -->
      <g transform="translate(302.108232 656.788954) scale(0.1 -0.1)">
       <defs>
        <path id="DejaVuSans-36" d="M 2113 2584 
Q 1688 2584 1439 2293 
Q 1191 2003 1191 1497 
Q 1191 994 1439 701 
Q 1688 409 2113 409 
Q 2538 409 2786 701 
Q 3034 994 3034 1497 
Q 3034 2003 2786 2293 
Q 2538 2584 2113 2584 
z
M 3366 4563 
L 3366 3988 
Q 3128 4100 2886 4159 
Q 2644 4219 2406 4219 
Q 1781 4219 1451 3797 
Q 1122 3375 1075 2522 
Q 1259 2794 1537 2939 
Q 1816 3084 2150 3084 
Q 2853 3084 3261 2657 
Q 3669 2231 3669 1497 
Q 3669 778 3244 343 
Q 2819 -91 2113 -91 
Q 1303 -91 875 529 
Q 447 1150 447 2328 
Q 447 3434 972 4092 
Q 1497 4750 2381 4750 
Q 2619 4750 2861 4703 
Q 3103 4656 3366 4563 
z
" transform="scale(0.015625)"/>
       </defs>
       <use xlink:href="#DejaVuSans-30"/>
       <use xlink:href="#DejaVuSans-2e" transform="translate(63.623047 0)"/>
       <use xlink:href="#DejaVuSans-36" transform="translate(95.410156 0)"/>
      </g>
     </g>
    </g>
    <g id="xtick_10">
     <g id="line2d_57">
      <path d="M 391.991654 642.190517 
L 391.991654 543.026523 
" clip-path="url(#p8b9b414527)" style="fill: none; stroke: #b0b0b0; stroke-opacity: 0.25; stroke-width: 0.4; stroke-linecap: square"/>
     </g>
     <g id="line2d_58">
      <g>
       <use xlink:href="#mfe233e019a" x="391.991654" y="642.190517" style="stroke: #000000; stroke-width: 0.8"/>
      </g>
     </g>
     <g id="text_27">
      <!-- 0.8 -->
      <g transform="translate(384.040092 656.788954) scale(0.1 -0.1)">
       <defs>
        <path id="DejaVuSans-38" d="M 2034 2216 
Q 1584 2216 1326 1975 
Q 1069 1734 1069 1313 
Q 1069 891 1326 650 
Q 1584 409 2034 409 
Q 2484 409 2743 651 
Q 3003 894 3003 1313 
Q 3003 1734 2745 1975 
Q 2488 2216 2034 2216 
z
M 1403 2484 
Q 997 2584 770 2862 
Q 544 3141 544 3541 
Q 544 4100 942 4425 
Q 1341 4750 2034 4750 
Q 2731 4750 3128 4425 
Q 3525 4100 3525 3541 
Q 3525 3141 3298 2862 
Q 3072 2584 2669 2484 
Q 3125 2378 3379 2068 
Q 3634 1759 3634 1313 
Q 3634 634 3220 271 
Q 2806 -91 2034 -91 
Q 1263 -91 848 271 
Q 434 634 434 1313 
Q 434 1759 690 2068 
Q 947 2378 1403 2484 
z
M 1172 3481 
Q 1172 3119 1398 2916 
Q 1625 2713 2034 2713 
Q 2441 2713 2670 2916 
Q 2900 3119 2900 3481 
Q 2900 3844 2670 4047 
Q 2441 4250 2034 4250 
Q 1625 4250 1398 4047 
Q 1172 3844 1172 3481 
z
" transform="scale(0.015625)"/>
       </defs>
       <use xlink:href="#DejaVuSans-30"/>
       <use xlink:href="#DejaVuSans-2e" transform="translate(63.623047 0)"/>
       <use xlink:href="#DejaVuSans-38" transform="translate(95.410156 0)"/>
      </g>
     </g>
    </g>
    <g id="xtick_11">
     <g id="line2d_59">
      <path d="M 473.923514 642.190517 
L 473.923514 543.026523 
" clip-path="url(#p8b9b414527)" style="fill: none; stroke: #b0b0b0; stroke-opacity: 0.25; stroke-width: 0.4; stroke-linecap: square"/>
     </g>
     <g id="line2d_60">
      <g>
       <use xlink:href="#mfe233e019a" x="473.923514" y="642.190517" style="stroke: #000000; stroke-width: 0.8"/>
      </g>
     </g>
     <g id="text_28">
      <!-- 1.0 -->
      <g transform="translate(465.971951 656.788954) scale(0.1 -0.1)">
       <use xlink:href="#DejaVuSans-31"/>
       <use xlink:href="#DejaVuSans-2e" transform="translate(63.623047 0)"/>
       <use xlink:href="#DejaVuSans-30" transform="translate(95.410156 0)"/>
      </g>
     </g>
    </g>
    <g id="text_29">
     <!-- x/c -->
     <g transform="translate(261.700896 670.467079) scale(0.1 -0.1)">
      <use xlink:href="#DejaVuSans-78"/>
      <use xlink:href="#DejaVuSans-2f" transform="translate(59.179688 0)"/>
      <use xlink:href="#DejaVuSans-63" transform="translate(92.871094 0)"/>
     </g>
    </g>
   </g>
   <g id="matplotlib.axis_4">
    <g id="ytick_10">
     <g id="line2d_61">
      <path d="M 43.78125 609.902129 
L 494.406479 609.902129 
" clip-path="url(#p8b9b414527)" style="fill: none; stroke: #b0b0b0; stroke-opacity: 0.25; stroke-width: 0.4; stroke-linecap: square"/>
     </g>
     <g id="line2d_62">
      <g>
       <use xlink:href="#me204130ee1" x="43.78125" y="609.902129" style="stroke: #000000; stroke-width: 0.8"/>
      </g>
     </g>
     <g id="text_30">
      <!-- 0.0 -->
      <g transform="translate(20.878125 613.701348) scale(0.1 -0.1)">
       <use xlink:href="#DejaVuSans-30"/>
       <use xlink:href="#DejaVuSans-2e" transform="translate(63.623047 0)"/>
       <use xlink:href="#DejaVuSans-30" transform="translate(95.410156 0)"/>
      </g>
     </g>
    </g>
    <g id="ytick_11">
     <g id="line2d_63">
      <path d="M 43.78125 568.936199 
L 494.406479 568.936199 
" clip-path="url(#p8b9b414527)" style="fill: none; stroke: #b0b0b0; stroke-opacity: 0.25; stroke-width: 0.4; stroke-linecap: square"/>
     </g>
     <g id="line2d_64">
      <g>
       <use xlink:href="#me204130ee1" x="43.78125" y="568.936199" style="stroke: #000000; stroke-width: 0.8"/>
      </g>
     </g>
     <g id="text_31">
      <!-- 0.1 -->
      <g transform="translate(20.878125 572.735418) scale(0.1 -0.1)">
       <use xlink:href="#DejaVuSans-30"/>
       <use xlink:href="#DejaVuSans-2e" transform="translate(63.623047 0)"/>
       <use xlink:href="#DejaVuSans-31" transform="translate(95.410156 0)"/>
      </g>
     </g>
    </g>
    <g id="text_32">
     <!-- z/c -->
     <g transform="translate(14.798438 599.666332) rotate(-90) scale(0.1 -0.1)">
      <defs>
       <path id="DejaVuSans-7a" d="M 353 3500 
L 3084 3500 
L 3084 2975 
L 922 459 
L 3084 459 
L 3084 0 
L 275 0 
L 275 525 
L 2438 3041 
L 353 3041 
L 353 3500 
z
" transform="scale(0.015625)"/>
      </defs>
      <use xlink:href="#DejaVuSans-7a"/>
      <use xlink:href="#DejaVuSans-2f" transform="translate(52.490234 0)"/>
      <use xlink:href="#DejaVuSans-63" transform="translate(86.181641 0)"/>
     </g>
    </g>
   </g>
   <g id="line2d_65">
    <path d="M 64.264215 609.902129 
L 64.422131 608.607866 
L 64.895636 606.825309 
L 65.684 604.798951 
L 66.786008 602.600206 
L 68.199959 600.268891 
L 69.923674 597.83233 
L 71.954496 595.311665 
L 74.289292 592.724607 
L 76.924462 590.086859 
L 79.855944 587.412918 
L 83.079216 584.716582 
L 86.58931 582.011283 
L 90.380813 579.31031 
L 94.447878 576.626981 
L 98.784235 573.974756 
L 103.383197 571.367328 
L 108.237673 568.818677 
L 113.340177 566.343098 
L 118.682842 563.955209 
L 124.25743 561.669925 
L 130.055346 559.502404 
L 136.067648 557.467967 
L 142.285068 555.581973 
L 148.698017 553.859675 
L 155.296608 552.316031 
L 162.070667 550.965488 
L 169.009747 549.821732 
L 176.103149 548.897419 
L 183.339937 548.203881 
L 190.708951 547.750827 
L 198.198829 547.546039 
L 205.798022 547.595079 
L 213.494812 547.90102 
L 221.277332 548.464206 
L 229.133582 549.282065 
L 237.051448 550.348969 
L 245.01872 551.65617 
L 253.023115 553.191806 
L 261.05229 554.940987 
L 269.093864 556.885964 
L 279.81382 559.748317 
L 290.504393 562.867918 
L 301.136281 566.184921 
L 314.299243 570.51221 
L 337.467406 578.430463 
L 357.275301 585.147048 
L 371.508689 589.741071 
L 382.89112 593.186596 
L 393.786254 596.242898 
L 404.147437 598.89522 
L 413.930298 601.149147 
L 423.092949 603.026926 
L 431.596151 604.562952 
L 440.878463 606.01409 
L 450.365572 607.263379 
L 460.318816 608.341003 
L 471.401721 609.302442 
L 473.923514 609.49247 
L 473.923514 609.49247 
" clip-path="url(#p8b9b414527)" style="fill: none; stroke: #0f172a; stroke-opacity: 0.95; stroke-width: 2.4; stroke-linecap: square"/>
   </g>
   <g id="line2d_66">
    <path d="M 64.264215 609.902129 
L 64.422131 610.563867 
L 64.895636 611.474995 
L 65.684 612.50966 
L 66.786008 613.63011 
L 68.740234 615.220562 
L 71.243616 616.888747 
L 74.289292 618.60632 
L 77.868913 620.348783 
L 81.972669 622.093828 
L 86.58931 623.820653 
L 91.706185 625.509733 
L 97.309266 627.142787 
L 103.383197 628.702842 
L 109.91133 630.174329 
L 116.87577 631.543169 
L 124.25743 632.796833 
L 132.036077 633.924369 
L 140.190389 634.916385 
L 148.698017 635.765015 
L 157.535642 636.463849 
L 169.009747 637.119228 
L 180.912427 637.525934 
L 193.192714 637.680253 
L 205.798022 637.58166 
L 218.674372 637.232995 
L 231.766626 636.640751 
L 245.01872 635.815456 
L 258.373909 634.772028 
L 271.775002 633.530046 
L 287.836109 631.812128 
L 303.781664 629.894052 
L 324.692917 627.127085 
L 352.405588 623.192464 
L 389.489712 617.933261 
L 408.132383 615.525454 
L 423.092949 613.812132 
L 436.366268 612.509141 
L 449.101665 611.492658 
L 460.318816 610.817284 
L 471.401721 610.377765 
L 473.923514 610.311788 
L 473.923514 610.311788 
" clip-path="url(#p8b9b414527)" style="fill: none; stroke: #0f172a; stroke-opacity: 0.95; stroke-width: 2.4; stroke-linecap: square"/>
   </g>
   <g id="line2d_67">
    <path d="M 64.264215 609.902129 
L 64.422131 609.039517 
L 64.895636 607.755716 
L 65.684 606.245477 
L 66.786008 604.569024 
L 68.199959 602.76037 
L 69.923674 600.842908 
L 72.699154 598.147758 
L 76.012938 595.325944 
L 79.855944 592.407593 
L 84.217637 589.420392 
L 89.086063 586.390978 
L 94.447878 583.345816 
L 100.288386 580.311781 
L 106.591578 577.316572 
L 113.340177 574.38898 
L 120.515686 571.55905 
L 128.098438 568.858114 
L 136.067648 566.318685 
L 142.285068 564.54019 
L 148.698017 562.88565 
L 155.296608 561.369395 
L 162.070667 560.005597 
L 169.009747 558.808062 
L 176.103149 557.789995 
L 183.339937 556.963732 
L 190.708951 556.340455 
L 198.198829 555.929894 
L 205.798022 555.740023 
L 213.494812 555.776768 
L 221.277332 556.04373 
L 229.133582 556.541938 
L 237.051448 557.269652 
L 245.01872 558.222215 
L 253.023115 559.391973 
L 261.05229 560.768272 
L 269.093864 562.337534 
L 279.81382 564.701421 
L 290.504393 567.33341 
L 301.136281 570.181361 
L 314.299243 573.958002 
L 332.389707 579.440537 
L 366.830126 589.959741 
L 380.652087 593.895743 
L 391.648483 596.804491 
L 402.12008 599.347835 
L 412.02204 601.521851 
L 421.311958 603.340697 
L 429.950056 604.832442 
L 439.403494 606.24354 
L 449.101665 607.45843 
L 459.341599 608.506468 
L 470.964966 609.451657 
L 473.923514 609.659506 
L 473.923514 609.659506 
" clip-path="url(#p8b9b414527)" style="fill: none; stroke: #1d4ed8; stroke-opacity: 0.8; stroke-width: 1.6; stroke-linecap: square"/>
   </g>
   <g id="line2d_68">
    <path d="M 64.264215 609.902129 
L 64.422131 610.276279 
L 64.895636 610.832995 
L 66.016561 611.722018 
L 67.694106 612.726765 
L 69.923674 613.815018 
L 73.477464 615.257867 
L 77.868913 616.757761 
L 83.079216 618.28126 
L 89.086063 619.797154 
L 95.863731 621.276073 
L 103.383197 622.690703 
L 111.612261 624.016215 
L 120.515686 625.230733 
L 130.055346 626.315704 
L 140.190389 627.256096 
L 150.877417 628.040406 
L 162.070667 628.660483 
L 173.722205 629.111201 
L 188.238619 629.425138 
L 203.253531 629.491504 
L 218.674372 629.313877 
L 234.406065 628.899209 
L 250.35162 628.257923 
L 266.412727 627.404458 
L 285.164613 626.166586 
L 303.781664 624.706709 
L 324.692917 622.833113 
L 349.94911 620.322283 
L 415.81374 613.597673 
L 433.214402 612.138309 
L 447.806916 611.151295 
L 460.318816 610.530031 
L 471.803811 610.182605 
L 473.923514 610.144751 
L 473.923514 610.144751 
" clip-path="url(#p8b9b414527)" style="fill: none; stroke: #1d4ed8; stroke-opacity: 0.8; stroke-width: 1.6; stroke-linecap: square"/>
   </g>
   <g id="line2d_69">
    <path d="M 64.264215 609.902129 
L 64.422131 608.708596 
L 64.895636 607.059453 
L 65.684 605.18212 
L 66.786008 603.143138 
L 68.199959 600.979588 
L 69.923674 598.716883 
L 71.954496 596.374657 
L 74.289292 593.969335 
L 76.924462 591.515463 
L 79.855944 589.026462 
L 83.079216 586.515108 
L 87.822157 583.15334 
L 93.06195 579.803169 
L 98.784235 576.49408 
L 104.973327 573.256228 
L 109.91133 570.893247 
L 115.09478 568.601292 
L 120.515686 566.394185 
L 126.165689 564.286046 
L 132.036077 562.291235 
L 138.117798 560.424256 
L 144.401474 558.699645 
L 150.877417 557.131807 
L 157.535642 555.734831 
L 164.365881 554.522275 
L 171.357603 553.506919 
L 178.500027 552.700496 
L 185.78214 552.113413 
L 193.192714 551.754458 
L 200.720322 551.630512 
L 208.353358 551.746275 
L 216.08005 552.104014 
L 223.888486 552.703348 
L 231.766626 553.541081 
L 239.702321 554.611091 
L 247.683336 555.904283 
L 255.697364 557.408623 
L 263.732049 559.109239 
L 274.45568 561.65141 
L 285.164613 564.463101 
L 295.829499 567.490248 
L 309.054147 571.48802 
L 327.268628 577.271755 
L 359.687702 587.620209 
L 373.821848 591.85871 
L 385.110655 595.019871 
L 395.902661 597.809901 
L 406.151652 600.219279 
L 415.81374 602.257112 
L 424.847552 603.947417 
L 434.804532 605.566121 
L 443.73985 606.804523 
L 453.970092 607.987995 
L 464.710265 608.99133 
L 473.923514 609.693287 
L 473.923514 609.693287 
" clip-path="url(#p8b9b414527)" style="fill: none; stroke: #0f766e; stroke-opacity: 0.8; stroke-width: 1.6; stroke-linecap: square"/>
   </g>
   <g id="line2d_70">
    <path d="M 64.264215 609.902129 
L 64.422131 610.469919 
L 64.895636 611.254147 
L 65.684 612.145807 
L 66.786008 613.112049 
L 68.740234 614.484126 
L 71.243616 615.923324 
L 74.289292 617.404644 
L 77.868913 618.906407 
L 81.972669 620.408835 
L 86.58931 621.893497 
L 91.706185 623.34313 
L 97.309266 624.741651 
L 104.973327 626.395475 
L 113.340177 627.920456 
L 122.373988 629.294274 
L 132.036077 630.498347 
L 142.285068 631.517809 
L 153.077073 632.341339 
L 164.365881 632.960891 
L 176.103149 633.371373 
L 188.238619 633.570364 
L 200.720322 633.557915 
L 213.494812 633.33648 
L 226.507386 632.911006 
L 239.702321 632.289141 
L 255.697364 631.298892 
L 271.775002 630.066097 
L 287.836109 628.622904 
L 306.421103 626.72644 
L 327.268628 624.370307 
L 357.275301 620.722983 
L 393.786254 616.296171 
L 412.02204 614.289303 
L 428.276399 612.722306 
L 442.323998 611.596706 
L 455.108512 610.801268 
L 466.944113 610.294022 
L 473.923514 610.110971 
L 473.923514 610.110971 
" clip-path="url(#p8b9b414527)" style="fill: none; stroke: #0f766e; stroke-opacity: 0.8; stroke-width: 1.6; stroke-linecap: square"/>
   </g>
   <g id="line2d_71">
    <path d="M 64.264215 609.902129 
L 64.422131 608.177674 
L 64.895636 606.029143 
L 65.684 603.689445 
L 66.786008 601.222182 
L 68.199959 598.662542 
L 69.923674 596.034813 
L 71.954496 593.358 
L 74.289292 590.648237 
L 76.924462 587.920007 
L 79.855944 585.186836 
L 83.079216 582.461716 
L 86.58931 579.757387 
L 90.380813 577.086523 
L 94.447878 574.461867 
L 98.784235 571.896315 
L 103.383197 569.402975 
L 108.237673 566.99519 
L 113.340177 564.686532 
L 118.682842 562.490767 
L 124.25743 560.421798 
L 130.055346 558.493562 
L 136.067648 556.719913 
L 142.285068 555.114463 
L 148.698017 553.6904 
L 155.296608 552.460274 
L 162.070667 551.435768 
L 169.009747 550.627445 
L 176.103149 550.044488 
L 183.339937 549.694438 
L 190.708951 549.582935 
L 198.198829 549.71348 
L 205.798022 550.087219 
L 213.494812 550.702768 
L 221.277332 551.556075 
L 229.133582 552.640345 
L 237.051448 553.946022 
L 245.01872 555.460834 
L 253.023115 557.169908 
L 263.732049 559.720663 
L 274.45568 562.538966 
L 285.164613 565.57252 
L 298.485408 569.581417 
L 316.910396 575.395195 
L 349.94911 585.880611 
L 364.465523 590.226683 
L 376.117062 593.497877 
L 387.310311 596.413013 
L 397.997339 598.957837 
L 408.132383 601.135908 
L 417.672042 602.965551 
L 428.276399 604.743038 
L 437.899343 606.124633 
L 447.806916 607.327046 
L 458.331785 608.38048 
L 470.493622 609.354247 
L 473.923514 609.590581 
L 473.923514 609.590581 
" clip-path="url(#p8b9b414527)" style="fill: none; stroke: #7c3aed; stroke-opacity: 0.8; stroke-width: 1.6; stroke-linecap: square"/>
   </g>
   <g id="line2d_72">
    <path d="M 64.264215 609.902129 
L 64.422131 610.754262 
L 64.895636 611.815218 
L 65.684 612.968448 
L 66.786008 614.180662 
L 68.199959 615.432346 
L 69.923674 616.709208 
L 72.699154 618.430794 
L 76.012938 620.152412 
L 79.855944 621.852804 
L 84.217637 623.512696 
L 89.086063 625.114514 
L 94.447878 626.642316 
L 100.288386 628.081799 
L 106.591578 629.420327 
L 113.340177 630.646946 
L 120.515686 631.752357 
L 128.098438 632.728866 
L 136.067648 633.570299 
L 146.539246 634.425016 
L 157.535642 635.054874 
L 169.009747 635.456268 
L 180.912427 635.628219 
L 193.192714 635.572251 
L 205.798022 635.292421 
L 218.674372 634.795473 
L 231.766626 634.091099 
L 247.683336 632.990483 
L 263.732049 631.638938 
L 279.81382 630.072909 
L 298.485408 628.033303 
L 322.107679 625.198292 
L 366.830126 619.50726 
L 391.648483 616.484282 
L 410.089291 614.455943 
L 426.575467 612.881405 
L 440.878463 611.750557 
L 453.970092 610.945123 
L 466.233233 610.419091 
L 473.923514 610.213677 
L 473.923514 610.213677 
" clip-path="url(#p8b9b414527)" style="fill: none; stroke: #7c3aed; stroke-opacity: 0.8; stroke-width: 1.6; stroke-linecap: square"/>
   </g>
   <g id="line2d_73">
    <path d="M 64.264215 609.902129 
L 64.422131 608.614283 
L 64.895636 606.83736 
L 65.684 604.815888 
L 66.786008 602.621388 
L 68.199959 600.293748 
L 69.923674 597.860345 
L 71.954496 595.342355 
L 74.289292 592.757519 
L 76.924462 590.121563 
L 79.855944 587.449003 
L 83.079216 584.753655 
L 86.58931 582.048964 
L 90.380813 579.348233 
L 94.447878 576.664793 
L 98.784235 574.012116 
L 103.383197 571.403909 
L 108.237673 568.854163 
L 113.340177 566.377189 
L 118.682842 563.987622 
L 124.25743 561.700395 
L 130.055346 559.53069 
L 136.067648 557.493851 
L 142.285068 555.60527 
L 148.698017 553.880235 
L 155.296608 552.333748 
L 162.070667 550.980303 
L 169.009747 549.833641 
L 176.103149 548.906479 
L 183.339937 548.210218 
L 190.708951 547.754638 
L 198.198829 547.547597 
L 205.798022 547.594738 
L 213.494812 547.899213 
L 221.277332 548.461446 
L 229.133582 549.278941 
L 237.051448 550.34614 
L 245.01872 551.654358 
L 253.023115 553.191786 
L 261.05229 554.943573 
L 269.093864 556.891997 
L 279.81382 559.760269 
L 290.504393 562.887278 
L 301.136281 566.213106 
L 314.299243 570.55322 
L 337.467406 578.498478 
L 357.275301 585.241467 
L 371.508689 589.855505 
L 382.89112 593.317207 
L 393.786254 596.388821 
L 404.147437 599.055302 
L 413.930298 601.322042 
L 423.092949 603.211189 
L 431.596151 604.757128 
L 440.878463 606.218315 
L 450.365572 607.477007 
L 460.318816 608.563565 
L 471.401721 609.533943 
L 473.923514 609.725879 
L 473.923514 609.725879 
" clip-path="url(#p8b9b414527)" style="fill: none; stroke: #c2410c; stroke-opacity: 0.8; stroke-width: 1.6; stroke-linecap: square"/>
   </g>
   <g id="line2d_74">
    <path d="M 64.264215 609.902129 
L 64.422131 610.561353 
L 64.895636 611.470592 
L 65.684 612.503832 
L 66.786008 613.62323 
L 68.740234 615.212774 
L 71.243616 616.880549 
L 74.289292 618.598154 
L 77.868913 620.341052 
L 81.972669 622.086885 
L 86.58931 623.814807 
L 91.706185 625.505234 
L 97.309266 627.139824 
L 103.383197 628.701535 
L 109.91133 630.174721 
L 116.87577 631.545223 
L 124.25743 632.800429 
L 132.036077 633.929304 
L 140.190389 634.922374 
L 148.698017 635.771692 
L 157.535642 636.470774 
L 169.009747 637.125736 
L 180.912427 637.531105 
L 193.192714 637.683062 
L 205.798022 637.580999 
L 218.674372 637.227691 
L 231.766626 636.629595 
L 245.01872 635.797227 
L 258.373909 634.745523 
L 271.775002 633.494116 
L 287.836109 631.763492 
L 303.781664 629.831395 
L 322.107679 627.401295 
L 347.478778 623.796653 
L 391.648483 617.486508 
L 410.089291 615.112782 
L 424.847552 613.435954 
L 437.899343 612.169986 
L 450.365572 611.190607 
L 462.174791 610.502444 
L 473.292092 610.094107 
L 473.923514 610.078379 
L 473.923514 610.078379 
" clip-path="url(#p8b9b414527)" style="fill: none; stroke: #c2410c; stroke-opacity: 0.8; stroke-width: 1.6; stroke-linecap: square"/>
   </g>
   <g id="patch_9">
    <path d="M 43.78125 642.190517 
L 43.78125 543.026523 
" style="fill: none; stroke: #000000; stroke-width: 0.8; stroke-linejoin: miter; stroke-linecap: square"/>
   </g>
   <g id="patch_10">
    <path d="M 494.406479 642.190517 
L 494.406479 543.026523 
" style="fill: none; stroke: #000000; stroke-width: 0.8; stroke-linejoin: miter; stroke-linecap: square"/>
   </g>
   <g id="patch_11">
    <path d="M 43.78125 642.190517 
L 494.406479 642.190517 
" style="fill: none; stroke: #000000; stroke-width: 0.8; stroke-linejoin: miter; stroke-linecap: square"/>
   </g>
   <g id="patch_12">
    <path d="M 43.78125 543.026523 
L 494.406479 543.026523 
" style="fill: none; stroke: #000000; stroke-width: 0.8; stroke-linejoin: miter; stroke-linecap: square"/>
   </g>
   <g id="text_33">
    <!-- Root section C1 (normalized) -->
    <g transform="translate(182.140739 537.026523) scale(0.12 -0.12)">
     <defs>
      <path id="DejaVuSans-52" d="M 2841 2188 
Q 3044 2119 3236 1894 
Q 3428 1669 3622 1275 
L 4263 0 
L 3584 0 
L 2988 1197 
Q 2756 1666 2539 1819 
Q 2322 1972 1947 1972 
L 1259 1972 
L 1259 0 
L 628 0 
L 628 4666 
L 2053 4666 
Q 2853 4666 3247 4331 
Q 3641 3997 3641 3322 
Q 3641 2881 3436 2590 
Q 3231 2300 2841 2188 
z
M 1259 4147 
L 1259 2491 
L 2053 2491 
Q 2509 2491 2742 2702 
Q 2975 2913 2975 3322 
Q 2975 3731 2742 3939 
Q 2509 4147 2053 4147 
L 1259 4147 
z
" transform="scale(0.015625)"/>
      <path id="DejaVuSans-43" d="M 4122 4306 
L 4122 3641 
Q 3803 3938 3442 4084 
Q 3081 4231 2675 4231 
Q 1875 4231 1450 3742 
Q 1025 3253 1025 2328 
Q 1025 1406 1450 917 
Q 1875 428 2675 428 
Q 3081 428 3442 575 
Q 3803 722 4122 1019 
L 4122 359 
Q 3791 134 3420 21 
Q 3050 -91 2638 -91 
Q 1578 -91 968 557 
Q 359 1206 359 2328 
Q 359 3453 968 4101 
Q 1578 4750 2638 4750 
Q 3056 4750 3426 4639 
Q 3797 4528 4122 4306 
z
" transform="scale(0.015625)"/>
      <path id="DejaVuSans-28" d="M 1984 4856 
Q 1566 4138 1362 3434 
Q 1159 2731 1159 2009 
Q 1159 1288 1364 580 
Q 1569 -128 1984 -844 
L 1484 -844 
Q 1016 -109 783 600 
Q 550 1309 550 2009 
Q 550 2706 781 3412 
Q 1013 4119 1484 4856 
L 1984 4856 
z
" transform="scale(0.015625)"/>
      <path id="DejaVuSans-29" d="M 513 4856 
L 1013 4856 
Q 1481 4119 1714 3412 
Q 1947 2706 1947 2009 
Q 1947 1309 1714 600 
Q 1481 -109 1013 -844 
L 513 -844 
Q 928 -128 1133 580 
Q 1338 1288 1338 2009 
Q 1338 2731 1133 3434 
Q 928 4138 513 4856 
z
" transform="scale(0.015625)"/>
     </defs>
     <use xlink:href="#DejaVuSans-52"/>
     <use xlink:href="#DejaVuSans-6f" transform="translate(64.982422 0)"/>
     <use xlink:href="#DejaVuSans-6f" transform="translate(126.164062 0)"/>
     <use xlink:href="#DejaVuSans-74" transform="translate(187.345703 0)"/>
     <use xlink:href="#DejaVuSans-20" transform="translate(226.554688 0)"/>
     <use xlink:href="#DejaVuSans-73" transform="translate(258.341797 0)"/>
     <use xlink:href="#DejaVuSans-65" transform="translate(310.441406 0)"/>
     <use xlink:href="#DejaVuSans-63" transform="translate(371.964844 0)"/>
     <use xlink:href="#DejaVuSans-74" transform="translate(426.945312 0)"/>
     <use xlink:href="#DejaVuSans-69" transform="translate(466.154297 0)"/>
     <use xlink:href="#DejaVuSans-6f" transform="translate(493.9375 0)"/>
     <use xlink:href="#DejaVuSans-6e" transform="translate(555.119141 0)"/>
     <use xlink:href="#DejaVuSans-20" transform="translate(618.498047 0)"/>
     <use xlink:href="#DejaVuSans-43" transform="translate(650.285156 0)"/>
     <use xlink:href="#DejaVuSans-31" transform="translate(720.109375 0)"/>
     <use xlink:href="#DejaVuSans-20" transform="translate(783.732422 0)"/>
     <use xlink:href="#DejaVuSans-28" transform="translate(815.519531 0)"/>
     <use xlink:href="#DejaVuSans-6e" transform="translate(854.533203 0)"/>
     <use xlink:href="#DejaVuSans-6f" transform="translate(917.912109 0)"/>
     <use xlink:href="#DejaVuSans-72" transform="translate(979.09375 0)"/>
     <use xlink:href="#DejaVuSans-6d" transform="translate(1018.457031 0)"/>
     <use xlink:href="#DejaVuSans-61" transform="translate(1115.869141 0)"/>
     <use xlink:href="#DejaVuSans-6c" transform="translate(1177.148438 0)"/>
     <use xlink:href="#DejaVuSans-69" transform="translate(1204.931641 0)"/>
     <use xlink:href="#DejaVuSans-7a" transform="translate(1232.714844 0)"/>
     <use xlink:href="#DejaVuSans-65" transform="translate(1285.205078 0)"/>
     <use xlink:href="#DejaVuSans-64" transform="translate(1346.728516 0)"/>
     <use xlink:href="#DejaVuSans-29" transform="translate(1410.205078 0)"/>
    </g>
   </g>
   <g id="legend_2">
    <g id="patch_13">
     <path d="M 428.460229 610.074648 
L 488.806479 610.074648 
Q 490.406479 610.074648 490.406479 608.474648 
L 490.406479 548.626523 
Q 490.406479 547.026523 488.806479 547.026523 
L 428.460229 547.026523 
Q 426.860229 547.026523 426.860229 548.626523 
L 426.860229 608.474648 
Q 426.860229 610.074648 428.460229 610.074648 
z
" style="fill: #ffffff; opacity: 0.9; stroke: #cccccc; stroke-linejoin: miter"/>
    </g>
    <g id="text_34">
     <!-- Thickness -->
     <g transform="translate(433.922416 557.82496) scale(0.1 -0.1)">
      <defs>
       <path id="DejaVuSans-54" d="M -19 4666 
L 3928 4666 
L 3928 4134 
L 2272 4134 
L 2272 0 
L 1638 0 
L 1638 4134 
L -19 4134 
L -19 4666 
z
" transform="scale(0.015625)"/>
       <path id="DejaVuSans-6b" d="M 581 4863 
L 1159 4863 
L 1159 1991 
L 2875 3500 
L 3609 3500 
L 1753 1863 
L 3688 0 
L 2938 0 
L 1159 1709 
L 1159 0 
L 581 0 
L 581 4863 
z
" transform="scale(0.015625)"/>
      </defs>
      <use xlink:href="#DejaVuSans-54"/>
      <use xlink:href="#DejaVuSans-68" transform="translate(61.083984 0)"/>
      <use xlink:href="#DejaVuSans-69" transform="translate(124.462891 0)"/>
      <use xlink:href="#DejaVuSans-63" transform="translate(152.246094 0)"/>
      <use xlink:href="#DejaVuSans-6b" transform="translate(207.226562 0)"/>
      <use xlink:href="#DejaVuSans-6e" transform="translate(265.136719 0)"/>
      <use xlink:href="#DejaVuSans-65" transform="translate(328.515625 0)"/>
      <use xlink:href="#DejaVuSans-73" transform="translate(390.039062 0)"/>
      <use xlink:href="#DejaVuSans-73" transform="translate(442.138672 0)"/>
     </g>
    </g>
    <g id="line2d_75">
     <path d="M 430.060229 567.183398 
L 438.060229 567.183398 
L 446.060229 567.183398 
" style="fill: none; stroke: #1d4ed8; stroke-opacity: 0.8; stroke-width: 1.6; stroke-linecap: square"/>
    </g>
    <g id="text_35">
     <!-- t/c=0.18 -->
     <g transform="translate(452.460229 569.983398) scale(0.08 -0.08)">
      <defs>
       <path id="DejaVuSans-3d" d="M 678 2906 
L 4684 2906 
L 4684 2381 
L 678 2381 
L 678 2906 
z
M 678 1631 
L 4684 1631 
L 4684 1100 
L 678 1100 
L 678 1631 
z
" transform="scale(0.015625)"/>
      </defs>
      <use xlink:href="#DejaVuSans-74"/>
      <use xlink:href="#DejaVuSans-2f" transform="translate(39.208984 0)"/>
      <use xlink:href="#DejaVuSans-63" transform="translate(72.900391 0)"/>
      <use xlink:href="#DejaVuSans-3d" transform="translate(127.880859 0)"/>
      <use xlink:href="#DejaVuSans-30" transform="translate(211.669922 0)"/>
      <use xlink:href="#DejaVuSans-2e" transform="translate(275.292969 0)"/>
      <use xlink:href="#DejaVuSans-31" transform="translate(307.080078 0)"/>
      <use xlink:href="#DejaVuSans-38" transform="translate(370.703125 0)"/>
     </g>
    </g>
    <g id="line2d_76">
     <path d="M 430.060229 578.925898 
L 438.060229 578.925898 
L 446.060229 578.925898 
" style="fill: none; stroke: #0f766e; stroke-opacity: 0.8; stroke-width: 1.6; stroke-linecap: square"/>
    </g>
    <g id="text_36">
     <!-- t/c=0.20 -->
     <g transform="translate(452.460229 581.725898) scale(0.08 -0.08)">
      <use xlink:href="#DejaVuSans-74"/>
      <use xlink:href="#DejaVuSans-2f" transform="translate(39.208984 0)"/>
      <use xlink:href="#DejaVuSans-63" transform="translate(72.900391 0)"/>
      <use xlink:href="#DejaVuSans-3d" transform="translate(127.880859 0)"/>
      <use xlink:href="#DejaVuSans-30" transform="translate(211.669922 0)"/>
      <use xlink:href="#DejaVuSans-2e" transform="translate(275.292969 0)"/>
      <use xlink:href="#DejaVuSans-32" transform="translate(307.080078 0)"/>
      <use xlink:href="#DejaVuSans-30" transform="translate(370.703125 0)"/>
     </g>
    </g>
    <g id="line2d_77">
     <path d="M 430.060229 590.668398 
L 438.060229 590.668398 
L 446.060229 590.668398 
" style="fill: none; stroke: #7c3aed; stroke-opacity: 0.8; stroke-width: 1.6; stroke-linecap: square"/>
    </g>
    <g id="text_37">
     <!-- t/c=0.21 -->
     <g transform="translate(452.460229 593.468398) scale(0.08 -0.08)">
      <use xlink:href="#DejaVuSans-74"/>
      <use xlink:href="#DejaVuSans-2f" transform="translate(39.208984 0)"/>
      <use xlink:href="#DejaVuSans-63" transform="translate(72.900391 0)"/>
      <use xlink:href="#DejaVuSans-3d" transform="translate(127.880859 0)"/>
      <use xlink:href="#DejaVuSans-30" transform="translate(211.669922 0)"/>
      <use xlink:href="#DejaVuSans-2e" transform="translate(275.292969 0)"/>
      <use xlink:href="#DejaVuSans-32" transform="translate(307.080078 0)"/>
      <use xlink:href="#DejaVuSans-31" transform="translate(370.703125 0)"/>
     </g>
    </g>
    <g id="line2d_78">
     <path d="M 430.060229 602.410898 
L 438.060229 602.410898 
L 446.060229 602.410898 
" style="fill: none; stroke: #c2410c; stroke-opacity: 0.8; stroke-width: 1.6; stroke-linecap: square"/>
    </g>
    <g id="text_38">
     <!-- t/c=0.22 -->
     <g transform="translate(452.460229 605.210898) scale(0.08 -0.08)">
      <use xlink:href="#DejaVuSans-74"/>
      <use xlink:href="#DejaVuSans-2f" transform="translate(39.208984 0)"/>
      <use xlink:href="#DejaVuSans-63" transform="translate(72.900391 0)"/>
      <use xlink:href="#DejaVuSans-3d" transform="translate(127.880859 0)"/>
      <use xlink:href="#DejaVuSans-30" transform="translate(211.669922 0)"/>
      <use xlink:href="#DejaVuSans-2e" transform="translate(275.292969 0)"/>
      <use xlink:href="#DejaVuSans-32" transform="translate(307.080078 0)"/>
      <use xlink:href="#DejaVuSans-32" transform="translate(370.703125 0)"/>
     </g>
    </g>
   </g>
  </g>
  <g id="axes_3">
   <g id="patch_14">
    <path d="M 543.832104 610.681571 
L 994.457333 610.681571 
L 994.457333 574.535468 
L 543.832104 574.535468 
z
" style="fill: #ffffff"/>
   </g>
   <g id="matplotlib.axis_5">
    <g id="xtick_12">
     <g id="line2d_79">
      <path d="M 564.315069 610.681571 
L 564.315069 574.535468 
" clip-path="url(#pacfa39bdf4)" style="fill: none; stroke: #b0b0b0; stroke-opacity: 0.25; stroke-width: 0.4; stroke-linecap: square"/>
     </g>
     <g id="line2d_80">
      <g>
       <use xlink:href="#mfe233e019a" x="564.315069" y="610.681571" style="stroke: #000000; stroke-width: 0.8"/>
      </g>
     </g>
     <g id="text_39">
      <!-- 0.0 -->
      <g transform="translate(556.363506 625.280009) scale(0.1 -0.1)">
       <use xlink:href="#DejaVuSans-30"/>
       <use xlink:href="#DejaVuSans-2e" transform="translate(63.623047 0)"/>
       <use xlink:href="#DejaVuSans-30" transform="translate(95.410156 0)"/>
      </g>
     </g>
    </g>
    <g id="xtick_13">
     <g id="line2d_81">
      <path d="M 646.246928 610.681571 
L 646.246928 574.535468 
" clip-path="url(#pacfa39bdf4)" style="fill: none; stroke: #b0b0b0; stroke-opacity: 0.25; stroke-width: 0.4; stroke-linecap: square"/>
     </g>
     <g id="line2d_82">
      <g>
       <use xlink:href="#mfe233e019a" x="646.246928" y="610.681571" style="stroke: #000000; stroke-width: 0.8"/>
      </g>
     </g>
     <g id="text_40">
      <!-- 0.2 -->
      <g transform="translate(638.295366 625.280009) scale(0.1 -0.1)">
       <use xlink:href="#DejaVuSans-30"/>
       <use xlink:href="#DejaVuSans-2e" transform="translate(63.623047 0)"/>
       <use xlink:href="#DejaVuSans-32" transform="translate(95.410156 0)"/>
      </g>
     </g>
    </g>
    <g id="xtick_14">
     <g id="line2d_83">
      <path d="M 728.178788 610.681571 
L 728.178788 574.535468 
" clip-path="url(#pacfa39bdf4)" style="fill: none; stroke: #b0b0b0; stroke-opacity: 0.25; stroke-width: 0.4; stroke-linecap: square"/>
     </g>
     <g id="line2d_84">
      <g>
       <use xlink:href="#mfe233e019a" x="728.178788" y="610.681571" style="stroke: #000000; stroke-width: 0.8"/>
      </g>
     </g>
     <g id="text_41">
      <!-- 0.4 -->
      <g transform="translate(720.227226 625.280009) scale(0.1 -0.1)">
       <use xlink:href="#DejaVuSans-30"/>
       <use xlink:href="#DejaVuSans-2e" transform="translate(63.623047 0)"/>
       <use xlink:href="#DejaVuSans-34" transform="translate(95.410156 0)"/>
      </g>
     </g>
    </g>
    <g id="xtick_15">
     <g id="line2d_85">
      <path d="M 810.110648 610.681571 
L 810.110648 574.535468 
" clip-path="url(#pacfa39bdf4)" style="fill: none; stroke: #b0b0b0; stroke-opacity: 0.25; stroke-width: 0.4; stroke-linecap: square"/>
     </g>
     <g id="line2d_86">
      <g>
       <use xlink:href="#mfe233e019a" x="810.110648" y="610.681571" style="stroke: #000000; stroke-width: 0.8"/>
      </g>
     </g>
     <g id="text_42">
      <!-- 0.6 -->
      <g transform="translate(802.159086 625.280009) scale(0.1 -0.1)">
       <use xlink:href="#DejaVuSans-30"/>
       <use xlink:href="#DejaVuSans-2e" transform="translate(63.623047 0)"/>
       <use xlink:href="#DejaVuSans-36" transform="translate(95.410156 0)"/>
      </g>
     </g>
    </g>
    <g id="xtick_16">
     <g id="line2d_87">
      <path d="M 892.042508 610.681571 
L 892.042508 574.535468 
" clip-path="url(#pacfa39bdf4)" style="fill: none; stroke: #b0b0b0; stroke-opacity: 0.25; stroke-width: 0.4; stroke-linecap: square"/>
     </g>
     <g id="line2d_88">
      <g>
       <use xlink:href="#mfe233e019a" x="892.042508" y="610.681571" style="stroke: #000000; stroke-width: 0.8"/>
      </g>
     </g>
     <g id="text_43">
      <!-- 0.8 -->
      <g transform="translate(884.090945 625.280009) scale(0.1 -0.1)">
       <use xlink:href="#DejaVuSans-30"/>
       <use xlink:href="#DejaVuSans-2e" transform="translate(63.623047 0)"/>
       <use xlink:href="#DejaVuSans-38" transform="translate(95.410156 0)"/>
      </g>
     </g>
    </g>
    <g id="xtick_17">
     <g id="line2d_89">
      <path d="M 973.974368 610.681571 
L 973.974368 574.535468 
" clip-path="url(#pacfa39bdf4)" style="fill: none; stroke: #b0b0b0; stroke-opacity: 0.25; stroke-width: 0.4; stroke-linecap: square"/>
     </g>
     <g id="line2d_90">
      <g>
       <use xlink:href="#mfe233e019a" x="973.974368" y="610.681571" style="stroke: #000000; stroke-width: 0.8"/>
      </g>
     </g>
     <g id="text_44">
      <!-- 1.0 -->
      <g transform="translate(966.022805 625.280009) scale(0.1 -0.1)">
       <use xlink:href="#DejaVuSans-31"/>
       <use xlink:href="#DejaVuSans-2e" transform="translate(63.623047 0)"/>
       <use xlink:href="#DejaVuSans-30" transform="translate(95.410156 0)"/>
      </g>
     </g>
    </g>
    <g id="text_45">
     <!-- x/c -->
     <g transform="translate(761.751749 638.958134) scale(0.1 -0.1)">
      <use xlink:href="#DejaVuSans-78"/>
      <use xlink:href="#DejaVuSans-2f" transform="translate(59.179688 0)"/>
      <use xlink:href="#DejaVuSans-63" transform="translate(92.871094 0)"/>
     </g>
    </g>
   </g>
   <g id="matplotlib.axis_6">
    <g id="ytick_12">
     <g id="line2d_91">
      <path d="M 543.832104 599.450607 
L 994.457333 599.450607 
" clip-path="url(#pacfa39bdf4)" style="fill: none; stroke: #b0b0b0; stroke-opacity: 0.25; stroke-width: 0.4; stroke-linecap: square"/>
     </g>
     <g id="line2d_92">
      <g>
       <use xlink:href="#me204130ee1" x="543.832104" y="599.450607" style="stroke: #000000; stroke-width: 0.8"/>
      </g>
     </g>
     <g id="text_46">
      <!-- 0.00 -->
      <g transform="translate(514.566479 603.249826) scale(0.1 -0.1)">
       <use xlink:href="#DejaVuSans-30"/>
       <use xlink:href="#DejaVuSans-2e" transform="translate(63.623047 0)"/>
       <use xlink:href="#DejaVuSans-30" transform="translate(95.410156 0)"/>
       <use xlink:href="#DejaVuSans-30" transform="translate(159.033203 0)"/>
      </g>
     </g>
    </g>
    <g id="ytick_13">
     <g id="line2d_93">
      <path d="M 543.832104 578.967642 
L 994.457333 578.967642 
" clip-path="url(#pacfa39bdf4)" style="fill: none; stroke: #b0b0b0; stroke-opacity: 0.25; stroke-width: 0.4; stroke-linecap: square"/>
     </g>
     <g id="line2d_94">
      <g>
       <use xlink:href="#me204130ee1" x="543.832104" y="578.967642" style="stroke: #000000; stroke-width: 0.8"/>
      </g>
     </g>
     <g id="text_47">
      <!-- 0.05 -->
      <g transform="translate(514.566479 582.766861) scale(0.1 -0.1)">
       <use xlink:href="#DejaVuSans-30"/>
       <use xlink:href="#DejaVuSans-2e" transform="translate(63.623047 0)"/>
       <use xlink:href="#DejaVuSans-30" transform="translate(95.410156 0)"/>
       <use xlink:href="#DejaVuSans-35" transform="translate(159.033203 0)"/>
      </g>
     </g>
    </g>
   </g>
   <g id="line2d_95">
    <path d="M 564.315069 599.450607 
L 564.472985 597.932656 
L 564.94649 596.514335 
L 565.734854 595.139251 
L 566.836862 593.799275 
L 568.250813 592.492543 
L 569.974528 591.219359 
L 572.005349 589.980988 
L 574.340145 588.779178 
L 577.919767 587.237136 
L 582.023522 585.768875 
L 586.640164 584.37993 
L 591.757038 583.07614 
L 597.36012 581.86366 
L 603.434051 580.748975 
L 609.962183 579.738892 
L 618.733696 578.634164 
L 628.149292 577.71797 
L 638.168652 577.004058 
L 648.748871 576.505037 
L 659.844644 576.231359 
L 671.408457 576.190202 
L 683.390791 576.384389 
L 695.740337 576.811442 
L 708.404211 577.462905 
L 721.328186 578.32401 
L 737.102301 579.604107 
L 755.748218 581.377394 
L 777.186292 583.661634 
L 859.738555 592.743192 
L 878.444792 594.449309 
L 895.953515 595.830182 
L 913.981152 597.01177 
L 931.647005 597.927237 
L 949.152519 598.608157 
L 968.923744 599.142083 
L 973.974368 599.245778 
L 973.974368 599.245778 
" clip-path="url(#pacfa39bdf4)" style="fill: none; stroke: #0f172a; stroke-opacity: 0.95; stroke-width: 2.4; stroke-linecap: square"/>
   </g>
   <g id="line2d_96">
    <path d="M 564.315069 599.450607 
L 564.472985 600.236967 
L 564.94649 600.968903 
L 565.734854 601.673336 
L 566.836862 602.352462 
L 568.791088 603.217103 
L 571.29447 604.031351 
L 574.340145 604.790879 
L 578.896983 605.657492 
L 584.268491 606.426756 
L 590.431667 607.095042 
L 598.835089 607.761815 
L 608.288526 608.282406 
L 620.56654 608.711016 
L 634.091146 608.957492 
L 650.928271 609.03292 
L 671.408457 608.879602 
L 695.740337 608.448253 
L 723.93934 607.704414 
L 755.748218 606.641257 
L 798.536262 604.978301 
L 882.941974 601.648597 
L 913.981152 600.676655 
L 940.929317 600.053822 
L 965.539428 599.714223 
L 973.974368 599.655437 
L 973.974368 599.655437 
" clip-path="url(#pacfa39bdf4)" style="fill: none; stroke: #0f172a; stroke-opacity: 0.95; stroke-width: 2.4; stroke-linecap: square"/>
   </g>
   <g id="line2d_97">
    <path d="M 564.315069 599.450607 
L 564.472985 597.943084 
L 564.94649 596.606704 
L 565.734854 595.33636 
L 566.836862 594.114727 
L 568.250813 592.935461 
L 569.974528 591.796055 
L 572.005349 590.695759 
L 575.185352 589.289932 
L 578.896983 587.955905 
L 583.13007 586.69664 
L 587.873011 585.515859 
L 593.112804 584.417906 
L 600.33924 583.169444 
L 608.288526 582.068668 
L 616.926624 581.127013 
L 626.216543 580.356264 
L 636.118502 579.767866 
L 646.5901 579.372059 
L 657.586496 579.176914 
L 669.060601 579.187333 
L 680.963281 579.404143 
L 693.243568 579.823356 
L 708.404211 580.580144 
L 723.93934 581.588452 
L 742.409084 583.033034 
L 763.782903 584.94674 
L 798.536262 588.339559 
L 834.985051 591.855046 
L 857.326155 593.804797 
L 878.444792 595.420612 
L 898.048193 596.684829 
L 917.722896 597.708206 
L 936.417122 598.454481 
L 957.3404 599.052539 
L 973.974368 599.382731 
L 973.974368 599.382731 
" clip-path="url(#pacfa39bdf4)" style="fill: none; stroke: #1d4ed8; stroke-opacity: 0.8; stroke-width: 1.6; stroke-linecap: square"/>
   </g>
   <g id="line2d_98">
    <path d="M 564.315069 599.450607 
L 564.472985 600.116142 
L 564.94649 600.702346 
L 565.734854 601.253131 
L 566.836862 601.774109 
L 568.791088 602.424132 
L 571.29447 603.022465 
L 575.185352 603.695283 
L 579.906797 604.28223 
L 586.640164 604.871708 
L 594.498732 605.337355 
L 605.024181 605.730771 
L 618.733696 605.998314 
L 636.118502 606.095244 
L 657.586496 605.990977 
L 685.832994 605.631682 
L 723.93934 604.912209 
L 774.506533 603.711598 
L 915.864594 600.184617 
L 947.857769 599.706006 
L 973.974368 599.518484 
L 973.974368 599.518484 
" clip-path="url(#pacfa39bdf4)" style="fill: none; stroke: #1d4ed8; stroke-opacity: 0.8; stroke-width: 1.6; stroke-linecap: square"/>
   </g>
   <g id="line2d_99">
    <path d="M 564.315069 599.450607 
L 564.472985 598.220683 
L 564.94649 597.012196 
L 565.734854 595.817284 
L 566.836862 594.63694 
L 568.250813 593.473319 
L 569.974528 592.328949 
L 572.005349 591.206488 
L 575.185352 589.748626 
L 578.896983 588.340926 
L 583.13007 586.989786 
L 587.873011 585.701626 
L 593.112804 584.48297 
L 600.33924 583.067611 
L 608.288526 581.784944 
L 616.926624 580.649217 
L 626.216543 579.675166 
L 636.118502 578.877627 
L 646.5901 578.270879 
L 657.586496 577.86777 
L 669.060601 577.67867 
L 680.963281 577.710364 
L 693.243568 577.964998 
L 705.848875 578.439188 
L 718.725225 579.123432 
L 734.456919 580.199053 
L 750.402474 581.515118 
L 769.144718 583.287553 
L 793.219862 585.798104 
L 852.456442 592.079723 
L 873.872702 594.059393 
L 891.699336 595.491399 
L 910.140145 596.733318 
L 926.626321 597.625648 
L 943.790704 598.33967 
L 963.104085 598.907056 
L 973.974368 599.136249 
L 973.974368 599.136249 
" clip-path="url(#pacfa39bdf4)" style="fill: none; stroke: #0f766e; stroke-opacity: 0.8; stroke-width: 1.6; stroke-linecap: square"/>
   </g>
   <g id="line2d_100">
    <path d="M 564.315069 599.450607 
L 564.472985 600.042863 
L 564.94649 600.622876 
L 565.734854 601.192522 
L 567.273616 601.931926 
L 569.365693 602.64248 
L 572.005349 603.317974 
L 576.063792 604.104577 
L 580.949037 604.818587 
L 587.873011 605.570124 
L 595.914585 606.200093 
L 605.024181 606.705798 
L 616.926624 607.140671 
L 632.086931 607.442574 
L 648.748871 607.552723 
L 669.060601 607.472073 
L 693.243568 607.16176 
L 723.93934 606.533046 
L 761.103144 605.526006 
L 809.105 603.976754 
L 893.837108 601.198075 
L 926.626321 600.378555 
L 952.850847 599.938003 
L 973.974368 599.764965 
L 973.974368 599.764965 
" clip-path="url(#pacfa39bdf4)" style="fill: none; stroke: #0f766e; stroke-opacity: 0.8; stroke-width: 1.6; stroke-linecap: square"/>
   </g>
   <g id="line2d_101">
    <path d="M 564.315069 599.450607 
L 564.472985 598.114885 
L 564.94649 596.823115 
L 565.734854 595.553925 
L 566.836862 594.305765 
L 568.250813 593.079703 
L 569.974528 591.877696 
L 572.005349 590.702067 
L 575.185352 589.179907 
L 578.896983 587.715161 
L 583.13007 586.314029 
L 587.873011 584.982806 
L 593.112804 583.727937 
L 598.835089 582.556071 
L 606.642432 581.218517 
L 615.145634 580.035559 
L 624.308284 579.021794 
L 634.091146 578.191942 
L 644.452328 577.560191 
L 655.347462 577.139315 
L 666.729893 576.939629 
L 678.550881 576.96786 
L 690.759805 577.226083 
L 703.304385 577.710817 
L 716.130904 578.412411 
L 731.817479 579.517525 
L 747.73419 580.87203 
L 766.463581 582.699597 
L 790.555247 585.294754 
L 849.999964 591.830314 
L 871.559543 593.908505 
L 889.540565 595.420822 
L 906.202506 596.613627 
L 923.143802 597.607533 
L 940.929317 598.414806 
L 959.392453 599.018087 
L 973.974368 599.354434 
L 973.974368 599.354434 
" clip-path="url(#pacfa39bdf4)" style="fill: none; stroke: #7c3aed; stroke-opacity: 0.8; stroke-width: 1.6; stroke-linecap: square"/>
   </g>
   <g id="line2d_102">
    <path d="M 564.315069 599.450607 
L 564.472985 600.120366 
L 564.94649 600.76583 
L 565.734854 601.395673 
L 566.836862 602.008798 
L 568.791088 602.796393 
L 571.29447 603.544462 
L 574.340145 604.247468 
L 578.896983 605.055578 
L 584.268491 605.778331 
L 591.757038 606.525944 
L 600.33924 607.138993 
L 609.962183 607.617347 
L 622.424842 608.009809 
L 638.168652 608.25195 
L 655.347462 608.29171 
L 676.154003 608.119538 
L 700.771176 607.692334 
L 729.184436 606.980646 
L 763.782903 605.887936 
L 811.731197 604.125536 
L 885.161509 601.412791 
L 917.722896 600.449408 
L 945.176632 599.863977 
L 969.498348 599.573362 
L 973.974368 599.54678 
L 973.974368 599.54678 
" clip-path="url(#pacfa39bdf4)" style="fill: none; stroke: #7c3aed; stroke-opacity: 0.8; stroke-width: 1.6; stroke-linecap: square"/>
   </g>
   <g id="line2d_103">
    <path d="M 564.315069 599.450607 
L 564.472985 598.147135 
L 564.94649 596.859163 
L 565.734854 595.583138 
L 566.836862 594.321198 
L 568.250813 593.0762 
L 569.974528 591.851206 
L 572.005349 590.649325 
L 575.185352 589.088105 
L 578.896983 587.580683 
L 583.13007 586.134163 
L 587.873011 584.755587 
L 593.112804 583.452022 
L 598.835089 582.230655 
L 605.024181 581.098863 
L 613.391031 579.821698 
L 622.424842 578.711719 
L 632.086931 577.784501 
L 642.335922 577.055329 
L 653.127927 576.538399 
L 664.416735 576.245797 
L 676.154003 576.186359 
L 688.289472 576.364513 
L 700.771176 576.779249 
L 713.545666 577.423329 
L 726.558239 578.282858 
L 742.409084 579.569308 
L 758.424763 581.08902 
L 779.864674 583.377973 
L 811.731197 587.061437 
L 845.045868 590.871242 
L 866.88098 593.143691 
L 885.161509 594.825072 
L 902.170934 596.170093 
L 919.55574 597.305559 
L 936.417122 598.171498 
L 954.020946 598.841715 
L 973.816451 599.353758 
L 973.974368 599.357007 
L 973.974368 599.357007 
" clip-path="url(#pacfa39bdf4)" style="fill: none; stroke: #c2410c; stroke-opacity: 0.8; stroke-width: 1.6; stroke-linecap: square"/>
   </g>
   <g id="line2d_104">
    <path d="M 564.315069 599.450607 
L 564.472985 600.12671 
L 564.94649 600.79279 
L 565.734854 601.448768 
L 566.836862 602.091721 
L 568.791088 602.923272 
L 571.29447 603.718792 
L 574.340145 604.471659 
L 578.896983 605.344056 
L 584.268491 606.131728 
L 590.431667 606.828046 
L 598.835089 607.537327 
L 608.288526 608.106222 
L 620.56654 608.594005 
L 634.091146 608.898825 
L 650.928271 609.036352 
L 669.060601 608.966427 
L 690.759805 608.663872 
L 716.130904 608.083233 
L 745.069574 607.197058 
L 779.864674 605.906691 
L 837.51826 603.503629 
L 885.161509 601.602299 
L 915.864594 600.593461 
L 942.374851 599.94906 
L 965.539428 599.608687 
L 973.974368 599.544207 
L 973.974368 599.544207 
" clip-path="url(#pacfa39bdf4)" style="fill: none; stroke: #c2410c; stroke-opacity: 0.8; stroke-width: 1.6; stroke-linecap: square"/>
   </g>
   <g id="patch_15">
    <path d="M 543.832104 610.681571 
L 543.832104 574.535468 
" style="fill: none; stroke: #000000; stroke-width: 0.8; stroke-linejoin: miter; stroke-linecap: square"/>
   </g>
   <g id="patch_16">
    <path d="M 994.457333 610.681571 
L 994.457333 574.535468 
" style="fill: none; stroke: #000000; stroke-width: 0.8; stroke-linejoin: miter; stroke-linecap: square"/>
   </g>
   <g id="patch_17">
    <path d="M 543.832104 610.681571 
L 994.457333 610.681571 
" style="fill: none; stroke: #000000; stroke-width: 0.8; stroke-linejoin: miter; stroke-linecap: square"/>
   </g>
   <g id="patch_18">
    <path d="M 543.832104 574.535468 
L 994.457333 574.535468 
" style="fill: none; stroke: #000000; stroke-width: 0.8; stroke-linejoin: miter; stroke-linecap: square"/>
   </g>
   <g id="text_48">
    <!-- Tip section C4 (normalized) -->
    <g transform="translate(686.832218 568.535468) scale(0.12 -0.12)">
     <use xlink:href="#DejaVuSans-54"/>
     <use xlink:href="#DejaVuSans-69" transform="translate(57.958984 0)"/>
     <use xlink:href="#DejaVuSans-70" transform="translate(85.742188 0)"/>
     <use xlink:href="#DejaVuSans-20" transform="translate(149.21875 0)"/>
     <use xlink:href="#DejaVuSans-73" transform="translate(181.005859 0)"/>
     <use xlink:href="#DejaVuSans-65" transform="translate(233.105469 0)"/>
     <use xlink:href="#DejaVuSans-63" transform="translate(294.628906 0)"/>
     <use xlink:href="#DejaVuSans-74" transform="translate(349.609375 0)"/>
     <use xlink:href="#DejaVuSans-69" transform="translate(388.818359 0)"/>
     <use xlink:href="#DejaVuSans-6f" transform="translate(416.601562 0)"/>
     <use xlink:href="#DejaVuSans-6e" transform="translate(477.783203 0)"/>
     <use xlink:href="#DejaVuSans-20" transform="translate(541.162109 0)"/>
     <use xlink:href="#DejaVuSans-43" transform="translate(572.949219 0)"/>
     <use xlink:href="#DejaVuSans-34" transform="translate(642.773438 0)"/>
     <use xlink:href="#DejaVuSans-20" transform="translate(706.396484 0)"/>
     <use xlink:href="#DejaVuSans-28" transform="translate(738.183594 0)"/>
     <use xlink:href="#DejaVuSans-6e" transform="translate(777.197266 0)"/>
     <use xlink:href="#DejaVuSans-6f" transform="translate(840.576172 0)"/>
     <use xlink:href="#DejaVuSans-72" transform="translate(901.757812 0)"/>
     <use xlink:href="#DejaVuSans-6d" transform="translate(941.121094 0)"/>
     <use xlink:href="#DejaVuSans-61" transform="translate(1038.533203 0)"/>
     <use xlink:href="#DejaVuSans-6c" transform="translate(1099.8125 0)"/>
     <use xlink:href="#DejaVuSans-69" transform="translate(1127.595703 0)"/>
     <use xlink:href="#DejaVuSans-7a" transform="translate(1155.378906 0)"/>
     <use xlink:href="#DejaVuSans-65" transform="translate(1207.869141 0)"/>
     <use xlink:href="#DejaVuSans-64" transform="translate(1269.392578 0)"/>
     <use xlink:href="#DejaVuSans-29" transform="translate(1332.869141 0)"/>
    </g>
   </g>
   <g id="legend_3">
    <g id="patch_19">
     <path d="M 928.511083 641.583593 
L 988.857333 641.583593 
Q 990.457333 641.583593 990.457333 639.983593 
L 990.457333 580.135468 
Q 990.457333 578.535468 988.857333 578.535468 
L 928.511083 578.535468 
Q 926.911083 578.535468 926.911083 580.135468 
L 926.911083 639.983593 
Q 926.911083 641.583593 928.511083 641.583593 
z
" style="fill: #ffffff; opacity: 0.9; stroke: #cccccc; stroke-linejoin: miter"/>
    </g>
    <g id="text_49">
     <!-- Thickness -->
     <g transform="translate(933.97327 589.333905) scale(0.1 -0.1)">
      <use xlink:href="#DejaVuSans-54"/>
      <use xlink:href="#DejaVuSans-68" transform="translate(61.083984 0)"/>
      <use xlink:href="#DejaVuSans-69" transform="translate(124.462891 0)"/>
      <use xlink:href="#DejaVuSans-63" transform="translate(152.246094 0)"/>
      <use xlink:href="#DejaVuSans-6b" transform="translate(207.226562 0)"/>
      <use xlink:href="#DejaVuSans-6e" transform="translate(265.136719 0)"/>
      <use xlink:href="#DejaVuSans-65" transform="translate(328.515625 0)"/>
      <use xlink:href="#DejaVuSans-73" transform="translate(390.039062 0)"/>
      <use xlink:href="#DejaVuSans-73" transform="translate(442.138672 0)"/>
     </g>
    </g>
    <g id="line2d_105">
     <path d="M 930.111083 598.692343 
L 938.111083 598.692343 
L 946.111083 598.692343 
" style="fill: none; stroke: #1d4ed8; stroke-opacity: 0.8; stroke-width: 1.6; stroke-linecap: square"/>
    </g>
    <g id="text_50">
     <!-- t/c=0.18 -->
     <g transform="translate(952.511083 601.492343) scale(0.08 -0.08)">
      <use xlink:href="#DejaVuSans-74"/>
      <use xlink:href="#DejaVuSans-2f" transform="translate(39.208984 0)"/>
      <use xlink:href="#DejaVuSans-63" transform="translate(72.900391 0)"/>
      <use xlink:href="#DejaVuSans-3d" transform="translate(127.880859 0)"/>
      <use xlink:href="#DejaVuSans-30" transform="translate(211.669922 0)"/>
      <use xlink:href="#DejaVuSans-2e" transform="translate(275.292969 0)"/>
      <use xlink:href="#DejaVuSans-31" transform="translate(307.080078 0)"/>
      <use xlink:href="#DejaVuSans-38" transform="translate(370.703125 0)"/>
     </g>
    </g>
    <g id="line2d_106">
     <path d="M 930.111083 610.434843 
L 938.111083 610.434843 
L 946.111083 610.434843 
" style="fill: none; stroke: #0f766e; stroke-opacity: 0.8; stroke-width: 1.6; stroke-linecap: square"/>
    </g>
    <g id="text_51">
     <!-- t/c=0.20 -->
     <g transform="translate(952.511083 613.234843) scale(0.08 -0.08)">
      <use xlink:href="#DejaVuSans-74"/>
      <use xlink:href="#DejaVuSans-2f" transform="translate(39.208984 0)"/>
      <use xlink:href="#DejaVuSans-63" transform="translate(72.900391 0)"/>
      <use xlink:href="#DejaVuSans-3d" transform="translate(127.880859 0)"/>
      <use xlink:href="#DejaVuSans-30" transform="translate(211.669922 0)"/>
      <use xlink:href="#DejaVuSans-2e" transform="translate(275.292969 0)"/>
      <use xlink:href="#DejaVuSans-32" transform="translate(307.080078 0)"/>
      <use xlink:href="#DejaVuSans-30" transform="translate(370.703125 0)"/>
     </g>
    </g>
    <g id="line2d_107">
     <path d="M 930.111083 622.177343 
L 938.111083 622.177343 
L 946.111083 622.177343 
" style="fill: none; stroke: #7c3aed; stroke-opacity: 0.8; stroke-width: 1.6; stroke-linecap: square"/>
    </g>
    <g id="text_52">
     <!-- t/c=0.21 -->
     <g transform="translate(952.511083 624.977343) scale(0.08 -0.08)">
      <use xlink:href="#DejaVuSans-74"/>
      <use xlink:href="#DejaVuSans-2f" transform="translate(39.208984 0)"/>
      <use xlink:href="#DejaVuSans-63" transform="translate(72.900391 0)"/>
      <use xlink:href="#DejaVuSans-3d" transform="translate(127.880859 0)"/>
      <use xlink:href="#DejaVuSans-30" transform="translate(211.669922 0)"/>
      <use xlink:href="#DejaVuSans-2e" transform="translate(275.292969 0)"/>
      <use xlink:href="#DejaVuSans-32" transform="translate(307.080078 0)"/>
      <use xlink:href="#DejaVuSans-31" transform="translate(370.703125 0)"/>
     </g>
    </g>
    <g id="line2d_108">
     <path d="M 930.111083 633.919843 
L 938.111083 633.919843 
L 946.111083 633.919843 
" style="fill: none; stroke: #c2410c; stroke-opacity: 0.8; stroke-width: 1.6; stroke-linecap: square"/>
    </g>
    <g id="text_53">
     <!-- t/c=0.22 -->
     <g transform="translate(952.511083 636.719843) scale(0.08 -0.08)">
      <use xlink:href="#DejaVuSans-74"/>
      <use xlink:href="#DejaVuSans-2f" transform="translate(39.208984 0)"/>
      <use xlink:href="#DejaVuSans-63" transform="translate(72.900391 0)"/>
      <use xlink:href="#DejaVuSans-3d" transform="translate(127.880859 0)"/>
      <use xlink:href="#DejaVuSans-30" transform="translate(211.669922 0)"/>
      <use xlink:href="#DejaVuSans-2e" transform="translate(275.292969 0)"/>
      <use xlink:href="#DejaVuSans-32" transform="translate(307.080078 0)"/>
      <use xlink:href="#DejaVuSans-32" transform="translate(370.703125 0)"/>
     </g>
    </g>
   </g>
  </g>
 </g>
 <defs>
  <clipPath id="pd9a67671d6">
   <rect x="284.91583" y="22.318125" width="468.406922" height="404.143144"/>
  </clipPath>
  <clipPath id="p8b9b414527">
   <rect x="43.78125" y="543.026523" width="450.625229" height="99.163994"/>
  </clipPath>
  <clipPath id="pacfa39bdf4">
   <rect x="543.832104" y="574.535468" width="450.625229" height="36.146104"/>
  </clipPath>
 </defs>
</svg>
